<svg width="109" height="39" viewBox="0 0 109 39" fill="none" xmlns="http://www.w3.org/2000/svg">
<path fill-rule="evenodd" clip-rule="evenodd" d="M108.229 33.3152C108.229 36.2371 105.942 38.6058 103.12 38.6058H6.18003C3.35798 38.6058 1.07031 36.2371 1.07031 33.3152V5.68687C1.07031 2.76491 3.35798 0.39624 6.18003 0.39624H103.12C105.942 0.39624 108.229 2.76491 108.229 5.68687V33.3152Z" fill="#0E7C98"/>
<path d="M103.12 39H6.18014C3.15197 39 0.688721 36.4495 0.688721 33.3141V5.68585C0.688721 2.55047 3.15197 0 6.18014 0H103.12C106.148 0 108.611 2.55047 108.611 5.68585V33.3141C108.611 36.4495 106.148 39 103.12 39ZM6.18014 0.790434C3.57184 0.790434 1.45212 2.9852 1.45212 5.68585V33.3141C1.45212 36.0148 3.57184 38.2096 6.18014 38.2096H103.12C105.728 38.2096 107.848 36.0148 107.848 33.3141V5.68585C107.848 2.98784 105.728 0.790434 103.12 0.790434H6.18014Z" fill="#0E7C98"/>
<path fill-rule="evenodd" clip-rule="evenodd" d="M38.6323 0.395386H6.18003C3.35798 0.395386 1.07031 2.76405 1.07031 5.68601V33.3142C1.07031 36.2362 3.35798 38.6049 6.18003 38.6049H38.6323V0.395386Z" fill="white"/>
<path fill-rule="evenodd" clip-rule="evenodd" d="M18.8782 12.2756L17.2827 14.5521C16.4837 15.6929 16.7305 17.7138 17.8222 18.5306L20.7816 20.7412C21.2906 21.1206 21.3287 21.4974 21.0895 21.8979L21.5196 22.2272L23.0184 20.0799C23.9447 18.7519 23.8632 16.9445 22.4916 15.9116L19.5093 13.6615C19.153 13.3928 19.1149 13.016 19.3133 12.5944L18.8782 12.2756Z" fill="#0E7C98"/>
<path fill-rule="evenodd" clip-rule="evenodd" d="M21.438 2.2135L18.9544 5.77045C17.7889 7.43826 18.2139 10.2891 19.8043 11.4985L23.8885 14.6022C24.7155 15.2319 24.825 16.8339 24.2219 17.6559L24.568 17.9247L27.3849 13.8197C28.6496 11.978 28.5758 9.25362 26.591 7.7597L22.2218 4.47677C21.611 4.01569 21.3057 3.23579 21.8146 2.49015L21.438 2.2135Z" fill="#0E7C98"/>
<path fill-rule="evenodd" clip-rule="evenodd" d="M14.8906 24.5273H18.1834L18.7713 26.5956C20.5653 26.5956 22.3592 26.5956 24.1507 26.5956L24.7385 24.5273H28.0313L27.5987 23.0071C23.5069 23.0071 19.4151 23.0071 15.3232 23.0071L14.8906 24.5273Z" fill="#0E7C98"/>
<path fill-rule="evenodd" clip-rule="evenodd" d="M31.8942 35.1291C31.8942 35.0975 31.8891 35.0685 31.8815 35.0448C31.8738 35.0211 31.8611 34.9974 31.8408 34.979C31.8204 34.9606 31.7975 34.9395 31.767 34.9237C31.7364 34.9079 31.6983 34.8895 31.6499 34.8737C31.6066 34.8579 31.5736 34.8447 31.5481 34.8315C31.5227 34.8184 31.5023 34.8052 31.487 34.792C31.4718 34.7789 31.4641 34.7657 31.4591 34.7499C31.454 34.7367 31.4514 34.7209 31.4514 34.7025C31.4514 34.6867 31.454 34.6709 31.4616 34.6551C31.4667 34.6393 31.4769 34.6261 31.4896 34.6156C31.5023 34.6051 31.5201 34.5945 31.5405 34.5893C31.5608 34.584 31.5863 34.5787 31.6143 34.5787C31.6575 34.5787 31.6932 34.584 31.7237 34.5972C31.7542 34.6103 31.7848 34.6288 31.8153 34.6551L31.8764 34.5814C31.8408 34.5524 31.8026 34.5313 31.7644 34.5155C31.7262 34.4997 31.6779 34.4918 31.6219 34.4918C31.5837 34.4918 31.5481 34.4971 31.515 34.505C31.482 34.5155 31.454 34.5287 31.4311 34.5471C31.4082 34.5656 31.3904 34.5893 31.3776 34.6156C31.3649 34.6419 31.3598 34.6709 31.3598 34.7051C31.3598 34.7367 31.3649 34.7631 31.3725 34.7868C31.3802 34.8105 31.3954 34.8315 31.4133 34.85C31.4311 34.8684 31.4565 34.8868 31.487 34.9026C31.5176 34.9184 31.5558 34.9342 31.6016 34.9527C31.6397 34.9658 31.6728 34.979 31.6983 34.9922C31.7237 35.0053 31.7441 35.0185 31.7593 35.0317C31.7746 35.0448 31.7848 35.0606 31.7924 35.0764C31.7975 35.0922 31.8026 35.1107 31.8026 35.1291C31.8026 35.1739 31.7873 35.2107 31.7542 35.2344C31.7212 35.2608 31.6779 35.274 31.6219 35.274C31.5787 35.274 31.5379 35.2634 31.5023 35.245C31.4641 35.2266 31.4311 35.2028 31.398 35.1712L31.3369 35.2423C31.37 35.2766 31.4107 35.3056 31.4591 35.3266C31.5074 35.3477 31.5608 35.3609 31.6168 35.3609C31.6601 35.3609 31.7008 35.3556 31.7339 35.3424C31.767 35.3319 31.7975 35.3135 31.8204 35.2924C31.8458 35.2713 31.8637 35.245 31.8738 35.2186C31.8891 35.1949 31.8942 35.1633 31.8942 35.1291Z" fill="#006697"/>
<path fill-rule="evenodd" clip-rule="evenodd" d="M32.7642 35.3527V34.5075H32.6624L32.4614 35.013C32.4563 35.0236 32.4512 35.0394 32.4461 35.0525C32.441 35.0683 32.4334 35.0841 32.4283 35.0999C32.4232 35.1157 32.4181 35.1289 32.413 35.1421C32.4079 35.1552 32.4054 35.1684 32.4028 35.1763C32.4003 35.1684 32.3978 35.1579 32.3927 35.1421C32.3876 35.1289 32.3825 35.1157 32.3774 35.0999C32.3723 35.0841 32.3647 35.0683 32.3596 35.0525C32.3545 35.0367 32.3494 35.0236 32.3443 35.0104L32.1458 34.5049H32.0415V35.3501H32.1306V34.7787V34.6892C32.1331 34.6971 32.1357 34.7076 32.1407 34.7182C32.1433 34.7287 32.1484 34.7418 32.1535 34.755C32.1586 34.7682 32.1636 34.7813 32.1662 34.7945C32.1713 34.8077 32.1764 34.8208 32.1815 34.8314L32.4028 35.3764L32.6268 34.8314C32.6319 34.8208 32.637 34.8077 32.642 34.7945C32.6471 34.7813 32.6522 34.7682 32.6573 34.755C32.6624 34.7418 32.6675 34.7313 32.67 34.7182C32.6726 34.7076 32.6777 34.6971 32.6802 34.6892V34.7787V35.3501L32.7642 35.3527Z" fill="#006697"/>
<path fill-rule="evenodd" clip-rule="evenodd" d="M17.7202 33.0084C17.5803 32.0256 17.1986 31.7911 16.4326 31.4407C17.0103 31.0903 17.3665 30.5738 17.3665 29.8677C17.3665 28.4555 16.2494 27.8811 15.0305 27.8811H11.6257V35.377H14.9974C16.4403 35.377 17.9671 34.7236 17.7202 33.0084ZM13.1678 29.3144H14.9364C16.0407 29.3144 16.0815 30.9137 15.0051 30.9137H13.1678V29.3144ZM15.1399 33.9595H13.1678V32.2496H15.1399C16.5904 32.2496 16.5013 33.9595 15.1399 33.9595Z" fill="#0E7C98"/>
<path fill-rule="evenodd" clip-rule="evenodd" d="M24.4815 33.0084C24.3415 32.0256 23.9573 31.7911 23.1939 31.4407C23.7715 31.0903 24.1278 30.5738 24.1278 29.8677C24.1278 28.4555 23.0106 27.8811 21.7917 27.8811H18.387V35.377H21.7587C23.199 35.377 24.7258 34.7236 24.4815 33.0084ZM19.9265 29.3144H21.695C22.7994 29.3144 22.8402 30.9137 21.7638 30.9137H19.9265V29.3144ZM21.8986 33.9595H19.9265V32.2496H21.8986C23.3491 32.2496 23.2626 33.9595 21.8986 33.9595Z" fill="#0E7C98"/>
<path fill-rule="evenodd" clip-rule="evenodd" d="M31.24 33.0084C31.1001 32.0256 30.7158 31.7911 29.9524 31.4407C30.53 31.0903 30.8863 30.5738 30.8863 29.8677C30.8863 28.4555 29.7692 27.8811 28.5503 27.8811H25.1455V35.377H28.5172C29.96 35.377 31.4868 34.7236 31.24 33.0084ZM26.685 29.3144H28.4536C29.558 29.3144 29.5987 30.9137 28.5223 30.9137H26.685V29.3144ZM28.6597 33.9595H26.6876V32.2496H28.6597C30.1102 32.2496 30.0211 33.9595 28.6597 33.9595Z" fill="#0E7C98"/>
<path fill-rule="evenodd" clip-rule="evenodd" d="M55.4198 18.2644C55.0075 17.7743 54.3612 17.3237 53.7504 17.1525C53.4858 17.0761 53.1881 17.0392 52.8624 17.0392C52.4043 17.0392 51.9844 17.1261 51.6078 17.2974C51.2287 17.4713 50.903 17.7111 50.6307 18.022C50.3584 18.3329 50.1446 18.7044 49.992 19.1391C49.8393 19.5738 49.7629 20.0507 49.7629 20.5724C49.7629 21.1152 49.8367 21.6026 49.9818 22.0347C50.1268 22.4694 50.3355 22.8383 50.6052 23.1466C50.875 23.4522 51.1956 23.6893 51.5671 23.8553C51.9386 24.0213 52.3534 24.1056 52.8115 24.1056C53.6563 24.1056 55.1169 23.6261 55.5343 22.7751L54.5418 21.8634C54.2594 22.3272 53.3789 22.7434 52.8496 22.7434C52.5901 22.7434 52.3585 22.6881 52.1524 22.5775C51.9463 22.4668 51.7732 22.314 51.6307 22.1164C51.4882 21.9214 51.3788 21.6895 51.3076 21.4261C51.2338 21.1626 51.1981 20.8754 51.1981 20.5698C51.1981 20.251 51.2338 19.9585 51.3076 19.695C51.3814 19.4316 51.4882 19.2023 51.6256 19.01C51.7656 18.8177 51.9386 18.6675 52.1448 18.5594C52.3509 18.4514 52.5824 18.3987 52.842 18.3987C53.3662 18.3987 54.1067 18.7571 54.4528 19.2287L55.4198 18.2644Z" fill="white"/>
<path fill-rule="evenodd" clip-rule="evenodd" d="M74.515 23.9987V22.6576H70.9194V21.0029H73.8127V19.6723H70.9194V18.4867H74.3649V17.1482H69.5249V23.9987H74.515Z" fill="white"/>
<path fill-rule="evenodd" clip-rule="evenodd" d="M80.9402 18.9819C80.7646 18.5472 80.5203 18.1941 80.2124 17.9201C79.9045 17.6461 79.5381 17.4485 79.1182 17.3273C78.6958 17.2061 78.2352 17.1455 77.739 17.1455H75.5557V23.9984H77.6398C78.0851 23.9984 78.5202 23.9326 78.9503 23.8035C79.3778 23.6717 79.7595 23.4689 80.0954 23.1922C80.4313 22.9156 80.701 22.5599 80.902 22.1251C81.1056 21.6904 81.2049 21.174 81.2049 20.5733C81.2049 19.9462 81.1158 19.4166 80.9402 18.9819ZM79.6399 21.4296C79.5534 21.6878 79.4236 21.9065 79.2531 22.0909C79.08 22.2727 78.8587 22.415 78.5889 22.5177C78.3192 22.6178 78.0037 22.6705 77.6372 22.6705H76.9502V18.4813H77.6881C78.4261 18.4813 78.9554 18.6552 79.2811 19.0056C79.6068 19.3534 79.7697 19.8777 79.7697 20.5759C79.7697 20.8868 79.7264 21.1714 79.6399 21.4296Z" fill="white"/>
<path fill-rule="evenodd" clip-rule="evenodd" d="M83.9482 23.9987V17.1482H82.5537V23.9987H83.9482Z" fill="white"/>
<path fill-rule="evenodd" clip-rule="evenodd" d="M90.4471 18.4972V17.1482H85.0474V18.4972H87.05V23.9987H88.4445V18.4972H90.4471Z" fill="white"/>
<path fill-rule="evenodd" clip-rule="evenodd" d="M102.766 18.9819C102.59 18.5472 102.349 18.1941 102.038 17.9201C101.73 17.6461 101.364 17.4485 100.944 17.3273C100.521 17.2061 100.061 17.1455 99.5647 17.1455H97.3813V23.9984H99.4629C99.9082 23.9984 100.346 23.9326 100.773 23.8035C101.201 23.6717 101.583 23.4689 101.918 23.1922C102.254 22.9156 102.522 22.5599 102.725 22.1251C102.929 21.6904 103.028 21.174 103.028 20.5733C103.031 19.9462 102.941 19.4166 102.766 18.9819ZM101.466 21.4296C101.379 21.6878 101.249 21.9065 101.079 22.0909C100.906 22.2727 100.684 22.415 100.415 22.5177C100.145 22.6205 99.8293 22.6705 99.4629 22.6705H98.7758V18.4813H99.5138C100.252 18.4813 100.781 18.6552 101.109 19.0056C101.435 19.3534 101.598 19.8777 101.598 20.5759C101.595 20.8868 101.552 21.1714 101.466 21.4296Z" fill="white"/>
<path fill-rule="evenodd" clip-rule="evenodd" d="M96.3356 23.9987V22.6576H92.74V21.0029H95.6333V19.6723H92.74V18.4867H96.1855V17.1482H91.343V23.9987H96.3356Z" fill="white"/>
<path fill-rule="evenodd" clip-rule="evenodd" d="M84.6658 34.4261V33.085H81.0701V31.4304H83.9634V30.0998H81.0701V28.9141H84.5156V27.573H79.6731V34.4261H84.6658Z" fill="white"/>
<path fill-rule="evenodd" clip-rule="evenodd" d="M61.8603 18.2644C61.4481 17.7743 60.8017 17.3237 60.191 17.1525C59.9264 17.0761 59.6286 17.0392 59.3055 17.0392C58.8474 17.0392 58.4276 17.1261 58.0509 17.2974C57.6718 17.4713 57.3461 17.7111 57.0738 18.022C56.8015 18.3329 56.5878 18.7044 56.4351 19.1391C56.2824 19.5738 56.2061 20.0507 56.2061 20.5724C56.2061 21.1152 56.2799 21.6026 56.4249 22.0347C56.5699 22.4694 56.7786 22.8383 57.0483 23.1466C57.3181 23.4522 57.6387 23.6893 58.0102 23.8553C58.3818 24.0213 58.7965 24.1056 59.2546 24.1056C60.0994 24.1056 61.5601 23.6261 61.9774 22.7751L60.985 21.8634C60.7025 22.3272 59.822 22.7434 59.2927 22.7434C59.0332 22.7434 58.8016 22.6881 58.5955 22.5775C58.3894 22.4668 58.2163 22.314 58.0713 22.1164C57.9288 21.9214 57.8194 21.6895 57.7481 21.4261C57.6743 21.1626 57.6387 20.8754 57.6387 20.5698C57.6387 20.251 57.6743 19.9585 57.7481 19.695C57.8219 19.4316 57.9288 19.2023 58.0662 19.01C58.2062 18.8177 58.3792 18.6675 58.5853 18.5594C58.7914 18.4514 59.023 18.3987 59.2826 18.3987C59.8068 18.3987 60.5473 18.7571 60.8933 19.2287L61.8603 18.2644Z" fill="white"/>
<path fill-rule="evenodd" clip-rule="evenodd" d="M55.8879 31.275C55.7072 31.0273 55.4807 30.8402 55.2084 30.7164C55.4349 30.5794 55.6105 30.3976 55.7377 30.1684C55.865 29.9392 55.9261 29.6783 55.9261 29.3859C55.9261 28.7983 55.7327 28.3504 55.3433 28.0395C54.954 27.7286 54.4298 27.5758 53.7707 27.5758H50.656V34.4261H53.7427C54.1041 34.4261 54.4349 34.3787 54.7326 34.2838C55.0303 34.189 55.2848 34.0494 55.4935 33.8623C55.7047 33.6752 55.8675 33.446 55.9846 33.1667C56.1016 32.8874 56.1602 32.5713 56.1602 32.2129C56.1602 31.8335 56.0686 31.5226 55.8879 31.275ZM51.9843 28.8352H53.7122C54.0099 28.8352 54.2237 28.8905 54.3534 29.0012C54.4832 29.1119 54.5468 29.2752 54.5468 29.4913C54.5468 29.681 54.4908 29.8364 54.3763 29.955C54.2618 30.0735 54.0633 30.1368 53.7783 30.1368H51.9818L51.9843 28.8352ZM54.5239 32.8848C54.3662 33.0455 54.1219 33.1246 53.7911 33.1246H51.9869V31.354H53.7911C54.4374 31.354 54.7606 31.6465 54.7606 32.234C54.7606 32.508 54.6817 32.7241 54.5239 32.8848Z" fill="white"/>
<path fill-rule="evenodd" clip-rule="evenodd" d="M62.5701 31.4016V27.5733H61.2112V31.42C61.2112 31.9733 61.0865 32.4081 60.8371 32.7216C60.5878 33.0351 60.2468 33.1906 59.8142 33.1906C59.3816 33.1906 59.0406 33.0299 58.7938 32.7111C58.5469 32.3923 58.4248 31.9549 58.4248 31.399V27.5707H57.0659V31.4174C57.0659 31.9206 57.1321 32.3633 57.2644 32.748C57.3967 33.1326 57.5825 33.4567 57.8217 33.7228C58.0609 33.9863 58.351 34.1865 58.6894 34.3262C59.0304 34.4632 59.4019 34.5317 59.8116 34.5317C60.6794 34.5317 61.3537 34.2603 61.8398 33.7149C62.3258 33.1695 62.5701 32.4002 62.5701 31.4016Z" fill="white"/>
<path fill-rule="evenodd" clip-rule="evenodd" d="M68.8149 32.3501C68.8149 31.9786 68.7462 31.6703 68.6113 31.4306C68.4764 31.1908 68.2983 30.9905 68.082 30.8325C67.8657 30.6744 67.6214 30.5532 67.3542 30.4662C67.0845 30.3793 66.8148 30.3002 66.5425 30.237C66.2702 30.1711 66.0463 30.1132 65.8732 30.0605C65.6977 30.0078 65.5602 29.9524 65.4559 29.8945C65.3516 29.8365 65.2803 29.768 65.2371 29.6942C65.1938 29.6205 65.1735 29.5256 65.1735 29.4149C65.1735 29.3359 65.1887 29.2621 65.2218 29.191C65.2549 29.1198 65.3083 29.054 65.3872 28.996C65.4661 28.938 65.5653 28.8906 65.6875 28.8537C65.8096 28.8168 65.9623 28.801 66.143 28.801C66.4534 28.801 66.7333 28.8616 66.9827 28.9828C67.2321 29.104 67.4662 29.2779 67.6876 29.5072L68.6673 28.5481C68.3441 28.2082 67.9828 27.9447 67.5858 27.755C67.1863 27.5653 66.7232 27.4705 66.1913 27.4705C65.8554 27.4705 65.5399 27.5152 65.2447 27.6075C64.9495 27.6997 64.6925 27.8314 64.4737 28.0053C64.2548 28.1792 64.0792 28.39 63.9546 28.6377C63.8299 28.8853 63.7663 29.1673 63.7663 29.4782C63.7663 29.8181 63.8171 30.1 63.9215 30.3292C64.0258 30.5584 64.1709 30.7455 64.3592 30.8957C64.5475 31.0459 64.7714 31.1697 65.0335 31.2672C65.2956 31.3647 65.5806 31.449 65.8936 31.5228C66.2117 31.5939 66.4687 31.6624 66.6697 31.7283C66.8707 31.7942 67.0234 31.8627 67.1303 31.9338C67.2372 32.0049 67.311 32.0814 67.3491 32.163C67.3873 32.2447 67.4077 32.3422 67.4077 32.4529C67.4077 32.7137 67.311 32.9034 67.1201 33.0193C66.9293 33.1379 66.629 33.1959 66.2219 33.1959C65.891 33.1959 65.5806 33.1353 65.2854 33.0141C64.9902 32.8929 64.723 32.6926 64.4838 32.4107L63.5042 33.2934C63.7637 33.678 64.125 33.981 64.5907 34.2024C65.0564 34.4237 65.573 34.5344 66.143 34.5344C66.6086 34.5344 67.0082 34.4817 67.3415 34.3763C67.6749 34.2709 67.9522 34.1233 68.1711 33.931C68.3899 33.7386 68.5528 33.5094 68.6571 33.2407C68.764 32.9746 68.8149 32.6768 68.8149 32.3501Z" fill="white"/>
<path fill-rule="evenodd" clip-rule="evenodd" d="M71.2731 34.4261V27.573H69.9167V34.4261H71.2731Z" fill="white"/>
<path fill-rule="evenodd" clip-rule="evenodd" d="M78.1894 34.4261V27.5758H76.8484V30.4714C76.8484 30.5689 76.8509 30.6901 76.8535 30.835C76.856 30.9773 76.8586 31.1248 76.8586 31.275C76.8586 31.4173 76.8611 31.5543 76.8637 31.6807C76.8662 31.8072 76.8687 31.9047 76.8687 31.9705C76.8229 31.8783 76.7542 31.7598 76.6601 31.6122C76.5659 31.4647 76.4769 31.3277 76.3929 31.1959L73.9856 27.5758H72.6853V34.4261H74.0238V31.412C74.0238 31.3145 74.0213 31.1933 74.0187 31.051C74.0162 30.9087 74.0136 30.7638 74.0136 30.6189C74.0136 30.4687 74.0111 30.3291 74.0085 30.2026C74.006 30.0762 74.0034 29.9787 74.0034 29.9128C74.0492 30.005 74.118 30.1236 74.2121 30.2711C74.3063 30.4187 74.3953 30.5557 74.4793 30.6874L76.9731 34.4261H78.1894Z" fill="white"/>
<path fill-rule="evenodd" clip-rule="evenodd" d="M90.2155 32.3501C90.2155 31.9786 90.1468 31.6703 90.012 31.4306C89.8771 31.1882 89.699 30.9905 89.4827 30.8325C89.2664 30.6744 89.0221 30.5532 88.7549 30.4662C88.4851 30.3793 88.2154 30.3002 87.9431 30.237C87.6709 30.1711 87.4495 30.1132 87.2739 30.0605C87.0983 30.0078 86.9609 29.9524 86.8566 29.8945C86.7522 29.8365 86.681 29.768 86.6377 29.6942C86.5945 29.6205 86.5741 29.5256 86.5741 29.4149C86.5741 29.3359 86.5919 29.2621 86.6224 29.191C86.6555 29.1198 86.709 29.054 86.7878 28.996C86.8642 28.938 86.966 28.8906 87.0881 28.8537C87.2103 28.8168 87.3629 28.801 87.5436 28.801C87.8541 28.801 88.134 28.8616 88.3834 28.9828C88.6327 29.104 88.8669 29.2779 89.0857 29.5072L90.0654 28.5481C89.7422 28.2082 89.3809 27.9447 88.9814 27.755C88.5844 27.5653 88.1187 27.4705 87.5894 27.4705C87.2535 27.4705 86.938 27.5152 86.6428 27.6075C86.3502 27.6997 86.0906 27.8314 85.8718 28.0053C85.6529 28.1792 85.4773 28.39 85.3526 28.6377C85.2254 28.8853 85.1643 29.1673 85.1643 29.4782C85.1643 29.8181 85.2152 30.1 85.3196 30.3292C85.4239 30.5584 85.5689 30.7455 85.7572 30.8957C85.9456 31.0459 86.1695 31.1697 86.4316 31.2672C86.6937 31.3647 86.9787 31.449 87.2917 31.5228C87.6098 31.5939 87.8693 31.6624 88.0678 31.7283C88.2689 31.7942 88.4215 31.8627 88.5284 31.9338C88.6353 32.0049 88.7065 32.0814 88.7472 32.163C88.7854 32.2447 88.8058 32.3422 88.8058 32.4529C88.8058 32.7137 88.7116 32.9034 88.5208 33.0193C88.3299 33.1379 88.0297 33.1959 87.6225 33.1959C87.2917 33.1959 86.9812 33.1353 86.6861 33.0141C86.3909 32.8929 86.1237 32.6926 85.8845 32.4107L84.9048 33.2934C85.1643 33.678 85.5257 33.981 85.9914 34.2024C86.457 34.4237 86.9736 34.5344 87.5436 34.5344C88.0093 34.5344 88.4088 34.4817 88.7422 34.3763C89.0755 34.2709 89.3529 34.1233 89.5717 33.931C89.7906 33.7386 89.9534 33.5094 90.0578 33.2407C90.1621 32.9746 90.2155 32.6768 90.2155 32.3501Z" fill="white"/>
<path fill-rule="evenodd" clip-rule="evenodd" d="M96.0531 32.3501C96.0531 31.9786 95.9844 31.6703 95.8496 31.4306C95.7147 31.1882 95.5366 30.9905 95.3203 30.8325C95.104 30.6744 94.8597 30.5532 94.5925 30.4662C94.3228 30.3793 94.053 30.3002 93.7808 30.237C93.5085 30.1711 93.2871 30.1132 93.1115 30.0605C92.9359 30.0078 92.7985 29.9524 92.6942 29.8945C92.5899 29.8365 92.5186 29.768 92.4753 29.6942C92.4321 29.6205 92.4117 29.5256 92.4117 29.4149C92.4117 29.3359 92.4295 29.2621 92.4601 29.191C92.4932 29.1198 92.5466 29.054 92.6255 28.996C92.7018 28.938 92.8036 28.8906 92.9258 28.8537C93.0479 28.8168 93.2006 28.801 93.3812 28.801C93.6917 28.801 93.9716 28.8616 94.221 28.9828C94.4704 29.104 94.7045 29.2779 94.9259 29.5072L95.9056 28.5481C95.5824 28.2082 95.221 27.9447 94.8241 27.755C94.4271 27.5653 93.9614 27.4705 93.4296 27.4705C93.0937 27.4705 92.7782 27.5152 92.483 27.6075C92.1903 27.6997 91.9308 27.8314 91.7119 28.0053C91.4931 28.1792 91.3201 28.39 91.1928 28.6377C91.0656 28.8853 91.0045 29.1673 91.0045 29.4782C91.0045 29.8181 91.0554 30.1 91.1598 30.3292C91.2615 30.5584 91.4091 30.7455 91.5949 30.8957C91.7832 31.0459 92.0071 31.1697 92.2692 31.2672C92.5313 31.3647 92.8163 31.449 93.1293 31.5228C93.4474 31.5939 93.7044 31.6624 93.9054 31.7283C94.1065 31.7942 94.2592 31.8627 94.366 31.9338C94.4729 32.0049 94.5467 32.0814 94.5849 32.163C94.623 32.2447 94.6434 32.3422 94.6434 32.4529C94.6434 32.7137 94.5467 32.9034 94.3584 33.0193C94.1675 33.1379 93.8673 33.1959 93.4601 33.1959C93.1293 33.1959 92.8189 33.1353 92.5237 33.0141C92.2285 32.8929 91.9613 32.6926 91.7221 32.4107L90.7424 33.2934C91.002 33.678 91.3633 33.981 91.829 34.2024C92.2947 34.4237 92.8112 34.5344 93.3812 34.5344C93.8469 34.5344 94.2464 34.4817 94.5798 34.3763C94.9131 34.2709 95.1905 34.1233 95.4093 33.931C95.6307 33.7386 95.791 33.5094 95.8954 33.2407C95.9997 32.9746 96.0531 32.6768 96.0531 32.3501Z" fill="white"/>
<path fill-rule="evenodd" clip-rule="evenodd" d="M46.8823 17.1482H45.5285L42.8591 23.9987H44.3529L44.9 22.4705H47.4497L47.9968 23.9987H49.5313L46.8823 17.1482ZM45.3784 21.1689L45.8262 19.9253C45.9 19.7224 45.9662 19.5274 46.0298 19.3377C46.0934 19.148 46.1418 18.9899 46.1748 18.8582C46.2079 18.9899 46.2563 19.148 46.3199 19.3377C46.3835 19.5274 46.4497 19.7224 46.5235 19.9253L46.9713 21.1689H45.3784Z" fill="white"/>
<path fill-rule="evenodd" clip-rule="evenodd" d="M67.1048 21.3955C67.5501 21.2269 68.0463 20.916 68.2677 20.5866C68.4917 20.2573 68.6011 19.8331 68.6011 19.3193C68.6011 18.953 68.5375 18.6342 68.4128 18.3655C68.2856 18.0941 68.1151 17.8675 67.8937 17.6857C67.6748 17.5039 67.4178 17.3669 67.1252 17.2799C66.8325 17.193 66.5246 17.1482 66.1989 17.1482H62.9519V23.9987H64.3464V21.5325L65.5882 21.5905L67.0463 23.9987H68.6494L67.1048 21.3955ZM66.1709 20.2415H64.3489V18.4788H66.1709C66.4839 18.4788 66.7282 18.5446 66.9038 18.679C67.0794 18.8134 67.1684 19.0374 67.1684 19.3483C67.1684 19.9437 66.8351 20.2415 66.1709 20.2415Z" fill="white"/>
<path d="M51.3251 13.5905H49.4395L48.6888 11.5696H45.2561L44.5461 13.5905H42.7063L46.0526 4.69543H47.8873L51.3251 13.5905ZM48.1316 10.073L46.9483 6.77164L45.7879 10.073H48.1316Z" fill="white"/>
<path d="M53.7732 12.3117V10.001H51.5237V8.40431H53.7732V6.09363H55.272V8.40431H57.5291V10.001H55.272V12.3117H53.7732Z" fill="white"/>
<path d="M60.7583 13.4435V4.71179H64.3412C65.242 4.71179 65.8986 4.79084 66.3057 4.94629C66.7129 5.10174 67.0411 5.38103 67.2854 5.78416C67.5297 6.18465 67.6544 6.6431 67.6544 7.15952C67.6544 7.81559 67.4686 8.35572 67.0971 8.78256C66.7256 9.2094 66.1683 9.47815 65.4278 9.58881C65.7968 9.81013 66.0996 10.0552 66.3388 10.3213C66.578 10.5874 66.9012 11.059 67.3083 11.7388L68.3389 13.4435H66.3032L65.0715 11.5438C64.6339 10.8641 64.3361 10.4372 64.1733 10.2607C64.0104 10.0842 63.8425 9.96295 63.6618 9.89708C63.4811 9.83121 63.1961 9.79959 62.8042 9.79959H62.4582V13.4462H60.7583V13.4435ZM62.4607 8.40315H63.7203C64.5372 8.40315 65.0461 8.36626 65.2497 8.29512C65.4532 8.22398 65.611 8.10015 65.7281 7.92625C65.8426 7.75235 65.9011 7.53366 65.9011 7.27018C65.9011 6.97509 65.8248 6.73795 65.6746 6.55879C65.5245 6.37962 65.3082 6.26369 65.0334 6.21626C64.896 6.19519 64.4812 6.18728 63.7916 6.18728H62.4632V8.40315H62.4607Z" fill="white"/>
<path d="M76.8662 13.4435H75.0137L74.2783 11.4595H70.9066L70.2093 13.4435H68.4026L71.6878 4.71179H73.4894L76.8662 13.4435ZM73.7312 9.98927L72.5682 6.74848L71.4308 9.98927H73.7312Z" fill="white"/>
<path d="M78.7924 13.4435V6.18733H76.291V4.70923H82.9937V6.18733H80.4974V13.4435H78.7924Z" fill="white"/>
<path d="M84.0396 13.4435V4.71179H85.7419V13.4435H84.0396Z" fill="white"/>
<path d="M87.3833 13.4435V4.71179H89.0399L92.4905 10.5426V4.71179H94.0732V13.4435H92.3658L88.9635 7.7497V13.4435H87.3833Z" fill="white"/>
<path d="M99.7961 10.2308V8.7606H103.466V12.2385C103.109 12.5968 102.593 12.9104 101.916 13.1817C101.239 13.4531 100.554 13.5901 99.8597 13.5901C98.9767 13.5901 98.2082 13.3978 97.5517 13.0157C96.8952 12.6337 96.4041 12.0857 96.0733 11.3717C95.7424 10.6576 95.5796 9.88302 95.5796 9.04516C95.5796 8.13617 95.7628 7.32729 96.1318 6.62118C96.5008 5.91506 97.0377 5.3723 97.7477 4.99553C98.2897 4.7057 98.9615 4.56079 99.7681 4.56079C100.814 4.56079 101.633 4.78738 102.221 5.24319C102.809 5.69901 103.188 6.32608 103.356 7.12969L101.664 7.4564C101.544 7.02693 101.32 6.68968 100.995 6.44201C100.669 6.19434 100.257 6.07051 99.7656 6.07051C99.0225 6.07051 98.4296 6.31554 97.9919 6.80298C97.5517 7.29041 97.3329 8.01497 97.3329 8.97666C97.3329 10.0121 97.5543 10.7894 97.9996 11.3084C98.4449 11.8275 99.0276 12.0857 99.7478 12.0857C100.104 12.0857 100.463 12.0145 100.822 11.867C101.18 11.7194 101.488 11.5456 101.745 11.34V10.2334H99.7961V10.2308Z" fill="white"/>
</svg>
