<svg width="39" height="36" viewBox="0 0 39 36" fill="none" xmlns="http://www.w3.org/2000/svg">
<path fill-rule="evenodd" clip-rule="evenodd" d="M3.24986 0V11.8947L0 14.2773V36H39V14.2773L35.7485 11.8996V0H3.24986ZM4.8748 18.3829V1.63636H34.1236V18.3813L19.4992 27.8165L4.8748 18.3829ZM35.7485 19.2665V14.0793L37.3751 15.3295V34.3636H1.62493V15.3147L3.24986 14.1578L3.35224 19.2862L19.4992 29.7802L35.7485 19.2665ZM12.5039 8.21782L8.12629 9.02945L11.1942 12.2793L10.6076 16.7236L14.6244 14.7895L18.6428 16.7236L18.0562 12.2793L21.1241 9.02945L16.7449 8.21782L14.6244 4.27418L12.5039 8.21782ZM12.9068 11.718L11.3713 10.0915L13.5633 9.684L14.6244 7.71055L15.6871 9.684L17.8791 10.0915L16.3436 11.718L16.6361 13.9435L14.6244 12.9764L12.6127 13.9435L12.9068 11.718ZM22.7507 6.68127H30.8737V5.04491H22.7507V6.68127ZM22.7507 9.954H30.8737V8.31764H22.7507V9.954ZM22.7507 13.2267H30.8737V11.5904H22.7507V13.2267ZM22.7507 16.4995H27.6255V14.8631H22.7507V16.4995Z" fill="#2B4A70"/>
</svg>
