
<svg width="133px" height="34px" viewBox="0 0 133 34" version="1.1" xmlns="http://www.w3.org/2000/svg" xmlns:xlink="http://www.w3.org/1999/xlink">
    <!-- Generator: Sketch 47.1 (45422) - http://www.bohemiancoding.com/sketch -->
    <desc>Created with Sketch.</desc>
    <defs></defs>
    <g id="Page-1" stroke="none" stroke-width="1" fill="none" fill-rule="evenodd">
        <g id="Footer-(v2)-•-High-Risk_v1_4" transform="translate(-943.000000, -745.000000)">
            <g id="FORM" transform="translate(915.000000, 118.000000)">
                <g id="BBB" transform="translate(29.000000, 627.000000)">
                    <g id="BBBAccredted">
                        <g id="Group-58" transform="translate(0.000000, 0.154320)">
                            <path d="M94.8908383,28.2106645 C94.8908383,30.792885 92.6911689,32.8863897 89.9774744,32.8863897 L5.35974829,32.8863897 C2.64627773,32.8863897 0.446608362,30.792885 0.446608362,28.2106645 L0.446608362,5.08849083 C0.446608362,2.50627026 2.64627773,0.412765572 5.35974829,0.412765572 L89.9774744,0.412765572 C92.6911689,0.412765572 94.8908383,2.50627026 94.8908383,5.08849083 L94.8908383,28.2106645 Z" id="Fill-1" stroke="#FFFFFF" fill="#FFFFFF"></path>
                            <path d="M33.4920883,0.412810367 L5.35979309,0.412810367 C2.64632253,0.412810367 0.446653157,2.50631506 0.446653157,5.08853562 L0.446653157,28.2107093 C0.446653157,30.7929298 2.64632253,32.8864345 5.35979309,32.8864345 L33.4920883,32.8864345 L33.4920883,0.412810367 Z" id="Fill-3" stroke="#FFFFFF" fill="#223657"></path>
                            <path d="M89.9774744,32.5518814 L5.35974829,32.5518814 C2.82746558,32.5518814 0.781116681,30.60438 0.781116681,28.2106645 L0.781116681,5.08849083 C0.781116681,2.69477532 2.82746558,0.747273891 5.35974829,0.747273891 L89.9774744,0.747273891 C92.5099487,0.747273891 94.55633,2.69474484 94.55633,5.08849083 L94.55633,28.2106645 C94.55633,30.6044105 92.5099487,32.5518814 89.9774744,32.5518814 Z M95.2253466,5.08849083 C95.2253466,2.31764094 92.8722266,0.0782572526 89.9774744,0.0782572526 L5.35974829,0.0782572526 C2.46518323,0.0782572526 0.112100043,2.31767638 0.112100043,5.08849083 L0.112100043,28.2106645 C0.112100043,30.9814789 2.46518323,33.220898 5.35974829,33.220898 L89.9774744,33.220898 C92.8722266,33.220898 95.2253466,30.9815144 95.2253466,28.2106645 L95.2253466,5.08849083 Z" id="Stroke-9" fill="#FFFFFF" fill-rule="nonzero"></path>
                            <path d="M13.5835687,10.6878264 L12.1678157,12.6370904 C11.4582594,13.6140742 11.677756,15.3458575 12.6469006,16.0453349 L15.2714526,17.9401728 C15.7216446,18.2651621 15.7572568,18.5874637 15.5435836,18.9312671 L15.924791,19.2141489 L17.2531933,17.3739612 C18.0740657,16.2368345 18.0026173,14.6891596 16.7848592,13.8022142 L14.1388055,11.8746758 C13.8216553,11.6439804 13.7891788,11.3214548 13.964552,10.9601813 L13.5835687,10.6878264 Z" id="Fill-11" fill="#FFFFFF"></path>
                            <path d="M15.8543953,2.06976323 L13.6506943,5.11740614 C12.6170446,6.54704565 12.9928765,8.98771331 14.4048219,10.0240508 L18.0278594,12.6830951 C18.7622771,13.2219817 18.8579149,14.5947312 18.3235079,15.2986881 L18.6308031,15.5289356 L21.1294806,12.0131826 C22.2518249,10.434151 22.1866478,8.10143985 20.4246278,6.82186433 L16.5493931,4.0078285 C16.006923,3.6140785 15.7361359,2.94461391 16.1878957,2.30561007 L15.8543953,2.06976323 Z" id="Fill-13" fill="#FFFFFF"></path>
                            <polygon id="Fill-15" fill="#FFFFFF" points="10.0467619 21.1831901 12.9671864 21.1831901 13.4877069 22.9537212 18.2599659 22.9537212 18.7807103 21.1831901 21.7009108 21.1831901 21.3179117 19.8812169 10.4295371 19.8812169"></polygon>
                            <path d="M25.1311903,30.2669219 C25.1311903,30.2402688 25.127585,30.2163033 25.1203746,30.1956975 C25.1131641,30.1748677 25.1014471,30.1560538 25.0845476,30.1388076 C25.0678735,30.1215614 25.0455661,30.1054352 25.0176256,30.0911007 C24.9896851,30.0765422 24.9554354,30.0619838 24.9139753,30.0476493 C24.8758951,30.0344347 24.845476,30.02234 24.822042,30.0111412 C24.7990587,30.0003904 24.7808072,29.9891916 24.7679636,29.9777688 C24.7553453,29.966346 24.7467829,29.9544753 24.7425017,29.9426045 C24.7382205,29.9305098 24.7361925,29.9168473 24.7361925,29.9016169 C24.7361925,29.8872824 24.7388964,29.8736199 24.744079,29.8608532 C24.7497121,29.8480866 24.7580492,29.8366638 24.7697662,29.8270328 C24.7814832,29.8176259 24.7965801,29.8097867 24.8152822,29.8039633 C24.833759,29.797916 24.8560663,29.7952282 24.8817536,29.7952282 C24.9193832,29.7952282 24.9522809,29.8006037 24.9797707,29.8122504 C25.0072606,29.8236732 25.0345251,29.8400235 25.0615643,29.8621971 L25.1151921,29.7992598 C25.0838717,29.7750704 25.0505233,29.7562564 25.0149217,29.7421459 C24.9797707,29.7287073 24.9369586,29.7213161 24.8871614,29.7213161 C24.8520105,29.7213161 24.8204647,29.7257956 24.7911722,29.7338588 C24.7623304,29.7421459 24.7377698,29.7546886 24.7172651,29.7705909 C24.6969857,29.7869411 24.6809875,29.806427 24.6697211,29.8292726 C24.6584548,29.8518942 24.6525963,29.8778754 24.6525963,29.9069923 C24.6525963,29.9331975 24.6564269,29.9562671 24.6638626,29.975977 C24.6712984,29.9961348 24.6834661,30.0145009 24.7001403,30.0304032 C24.7170398,30.0469774 24.7391218,30.0617598 24.7666116,30.0758703 C24.7941015,30.0902048 24.8281258,30.1040913 24.86891,30.1179778 C24.9029343,30.1298485 24.9315508,30.1412713 24.9545341,30.1524701 C24.9772921,30.1641169 24.9957689,30.1757637 25.0097392,30.1876344 C25.0234841,30.1990572 25.0333985,30.2120478 25.0390316,30.2254863 C25.0446648,30.2395968 25.0475941,30.2546032 25.0475941,30.2714015 C25.0475941,30.3097014 25.0331731,30.3401621 25.0043313,30.3623358 C24.9752642,30.3842854 24.935832,30.3954842 24.8860348,30.3954842 C24.8477293,30.3954842 24.811677,30.3874211 24.7792299,30.3715188 C24.7461069,30.3556165 24.7154625,30.3347867 24.686846,30.3085815 L24.6311903,30.3683831 C24.6611587,30.3975 24.6976617,30.4214654 24.7409244,30.4405034 C24.7839618,30.4593174 24.8312804,30.4689484 24.8828802,30.4689484 C24.9220871,30.4689484 24.9570127,30.463573 24.9876572,30.4532701 C25.0183016,30.4431911 25.0444395,30.4288567 25.0658455,30.4109386 C25.0872516,30.3927965 25.1034751,30.3715188 25.1145161,30.3466574 C25.1257824,30.3217961 25.1311903,30.2953669 25.1311903,30.2669219" id="Fill-17" fill="#223657"></path>
                            <path d="M25.9007317,30.457436 L25.9007317,29.7330973 L25.8104693,29.7330973 L25.6324083,30.166715 C25.6283767,30.1767939 25.6236732,30.1888887 25.6180738,30.2016553 C25.6129224,30.2150939 25.6077709,30.2280845 25.6026195,30.2412991 C25.597916,30.2542897 25.5932125,30.2666084 25.5887329,30.2784791 C25.5847014,30.2901259 25.5815657,30.2999808 25.5793259,30.307372 C25.5770862,30.2999808 25.5739505,30.2903498 25.5699189,30.278927 C25.5654394,30.2672803 25.5607359,30.2554096 25.5560324,30.2424189 C25.550881,30.2289804 25.5457295,30.2162137 25.5405781,30.2027752 C25.5352026,30.1897846 25.5304991,30.1776898 25.5262436,30.166715 L25.3506463,29.7330973 L25.2579202,29.7330973 L25.2579202,30.457436 L25.3378797,30.457436 L25.3378797,29.9669283 L25.3378797,29.8892086 C25.3401195,29.8961519 25.3425832,29.904663 25.3457189,29.9145179 C25.3488545,29.9245968 25.3526621,29.9348997 25.3564697,29.9456506 C25.3602773,29.9564015 25.3645328,29.9673763 25.3687884,29.9785751 C25.37282,29.9902218 25.3772995,30.0003008 25.381555,30.0092598 L25.5770862,30.47625 L25.7762009,30.0092598 C25.7804565,29.9996288 25.784712,29.9893259 25.7889676,29.9781271 C25.7932231,29.9673763 25.7977026,29.9564015 25.8017342,29.9456506 C25.8059898,29.9348997 25.8097974,29.9245968 25.812709,29.9145179 C25.8160687,29.904663 25.8187564,29.8961519 25.8209962,29.8892086 L25.8209962,29.9669283 L25.8209962,30.457436 L25.9007317,30.457436 Z" id="Fill-19" fill="#223657"></path>
                            <path d="M10.267468,29.2642705 L8.51776664,29.2642705 L8.51776664,27.7994667 L10.267468,27.7994667 C11.5542108,27.7994667 11.4760431,29.2642705 10.267468,29.2642705 L10.267468,29.2642705 Z M8.51776664,25.283991 L10.0864953,25.283991 C11.0668387,25.283991 11.102227,26.6538289 10.1483127,26.6538289 L8.51776664,26.6538289 L8.51776664,25.283991 Z M12.5573997,28.4485495 C12.432869,27.6066233 12.0935452,27.4050448 11.4151216,27.1058127 C11.9282509,26.8056847 12.2433852,26.3642278 12.2433852,25.7592683 C12.2433852,24.5495734 11.2525149,24.0568259 10.1713823,24.0568259 L7.15173635,24.0568259 L7.15173635,30.477773 L10.1431613,30.477773 C11.420945,30.477773 12.7748805,29.9191766 12.5573997,28.4485495 L12.5573997,28.4485495 Z" id="Fill-21" fill="#FFFFFF"></path>
                            <path d="M16.2628605,29.2642705 L14.5131591,29.2642705 L14.5131591,27.7994667 L16.2628605,27.7994667 C17.5496032,27.7994667 17.4714356,29.2642705 16.2628605,29.2642705 L16.2628605,29.2642705 Z M14.5131591,25.283991 L16.0821118,25.283991 C17.0624552,25.283991 17.0978434,26.6538289 16.1439292,26.6538289 L14.5131591,26.6538289 L14.5131591,25.283991 Z M18.5530162,28.4485495 C18.4282615,27.6066233 18.0889377,27.4050448 17.4107381,27.1058127 C17.9236433,26.8056847 18.2387777,26.3642278 18.2387777,25.7592683 C18.2387777,24.5495734 17.2481314,24.0568259 16.1669987,24.0568259 L13.1471288,24.0568259 L13.1471288,30.477773 L16.1387777,30.477773 C17.4161135,30.477773 18.770273,29.9191766 18.5530162,28.4485495 L18.5530162,28.4485495 Z" id="Fill-23" fill="#FFFFFF"></path>
                            <path d="M22.2582754,29.2642705 L20.508574,29.2642705 L20.508574,27.7994667 L22.2582754,27.7994667 C23.5452421,27.7994667 23.4668505,29.2642705 22.2582754,29.2642705 L22.2582754,29.2642705 Z M20.508574,25.283991 L22.0775267,25.283991 C23.0578701,25.283991 23.0932583,26.6538289 22.1391201,26.6538289 L20.508574,26.6538289 L20.508574,25.283991 Z M24.5484311,28.4485495 C24.4236764,27.6066233 24.0845766,27.4050448 23.4061529,27.1058127 C23.9192822,26.8056847 24.2341926,26.3642278 24.2341926,25.7592683 C24.2341926,24.5495734 23.2433223,24.0568259 22.1626376,24.0568259 L19.1427677,24.0568259 L19.1427677,30.477773 L22.1344166,30.477773 C23.4115284,30.477773 24.7659119,29.9191766 24.5484311,28.4485495 L24.5484311,28.4485495 Z" id="Fill-25" fill="#FFFFFF"></path>
                            <path d="M131.081794,16.8867459 C131.081794,25.6276376 123.995638,32.7135698 115.255194,32.7135698 C106.514302,32.7135698 99.4283703,25.6276376 99.4283703,16.8867459 C99.4283703,8.14585431 106.514302,1.05992214 115.255194,1.05992214 C123.995638,1.05992214 131.081794,8.14585431 131.081794,16.8867459" id="Fill-27" fill="#FFFFFF"></path>
                            <path d="M112.123672,18.0593505 L110.317529,13.1948134 L108.546998,18.0593505 L112.123672,18.0593505 Z M116.997168,23.2452933 L114.117731,23.2452933 L112.973214,20.2677549 L107.733068,20.2677549 L106.651264,23.2452933 L103.843723,23.2452933 L108.949259,10.1366436 L111.74784,10.1366436 L116.997168,23.2452933 Z" id="Fill-29" fill="#223657"></path>
                            <polygon id="Fill-31" fill="#223657" points="120.60063 21.1713865 120.60063 17.8406378 117.2439 17.8406378 117.2439 15.541523 120.60063 15.541523 120.60063 12.2107743 122.8386 12.2107743 122.8386 15.541523 126.204289 15.541523 126.204289 17.8406378 122.8386 17.8406378 122.8386 21.1713865"></polygon>
                            <path d="M40.1504501,13.3585847 L39.0935068,10.9127656 L38.0452986,13.3585847 L40.1504501,13.3585847 Z M38.6130781,9.62848656 L39.6088759,9.62848656 L42.2995009,15.7869337 L41.163718,15.7869337 L40.5435282,14.3107071 L37.6522206,14.3107071 L37.0230717,15.7869337 L35.9224531,15.7869337 L38.6130781,9.62848656 Z" id="Fill-33" fill="#223657"></path>
                            <path d="M42.4910452,12.7471299 L42.4910452,12.7296598 C42.4910452,10.9913812 43.7927944,9.56734108 45.6446288,9.56734108 C46.7714526,9.56734108 47.452788,9.96041916 48.0382615,10.5194635 L47.3481911,11.3145787 C46.8588033,10.8601312 46.3346992,10.5544038 45.6358938,10.5544038 C44.4651706,10.5544038 43.617869,11.5152613 43.617869,12.7121896 L43.617869,12.7296598 C43.617869,13.9263641 44.4651706,14.9046918 45.6358938,14.9046918 C46.3871096,14.9046918 46.8675384,14.5989644 47.3916425,14.1098006 L48.0817129,14.808606 C47.4440529,15.4724712 46.7452474,15.8917545 45.6009535,15.8917545 C43.8189996,15.8917545 42.4910452,14.5028786 42.4910452,12.7471299" id="Fill-35" fill="#223657"></path>
                            <path d="M48.5532722,12.7471299 L48.5532722,12.7296598 C48.5532722,10.9913812 49.8550213,9.56734108 51.7068558,9.56734108 C52.8336796,9.56734108 53.5150149,9.96041916 54.1004885,10.5194635 L53.4104181,11.3145787 C52.9210303,10.8601312 52.3969262,10.5544038 51.6981207,10.5544038 C50.5273976,10.5544038 49.680096,11.5152613 49.680096,12.7121896 L49.680096,12.7296598 C49.680096,13.9263641 50.5273976,14.9046918 51.6981207,14.9046918 C52.4493366,14.9046918 52.9297654,14.5989644 53.4538695,14.1098006 L54.1439398,14.808606 C53.5062799,15.4724712 52.8074744,15.8917545 51.6631805,15.8917545 C49.8812265,15.8917545 48.5532722,14.5028786 48.5532722,12.7471299" id="Fill-37" fill="#223657"></path>
                            <path d="M57.7076237,12.7033874 C58.4765337,12.7033874 58.9654735,12.3015742 58.9654735,11.6813844 L58.9654735,11.6639142 C58.9654735,11.0087841 58.4940038,10.6506463 57.6991126,10.6506463 L56.1353114,10.6506463 L56.1353114,12.7033874 L57.7076237,12.7033874 Z M55.060898,9.67231869 L57.7864633,9.67231869 C58.5549253,9.67231869 59.157869,9.89920648 59.5507231,10.2837735 C59.8741446,10.6157061 60.0575811,11.0699296 60.0575811,11.6027688 L60.0575811,11.6202389 C60.0575811,12.6247718 59.4548613,13.2274915 58.5988247,13.4720734 L60.2497526,15.7870904 L58.9829437,15.7870904 L57.4805119,13.6555098 L56.1353114,13.6555098 L56.1353114,15.7870904 L55.060898,15.7870904 L55.060898,9.67231869 Z" id="Fill-39" fill="#223657"></path>
                            <polygon id="Fill-41" fill="#223657" points="61.1665764 9.67227389 65.7003008 9.67227389 65.7003008 10.6331314 62.2412137 10.6331314 62.2412137 12.2229138 65.3072227 12.2229138 65.3072227 13.1837713 62.2412137 13.1837713 62.2412137 14.8261881 65.7439761 14.8261881 65.7439761 15.7870456 61.1665764 15.7870456"></polygon>
                            <path d="M69.0896192,14.8086284 C70.3736743,14.8086284 71.2124648,13.9438567 71.2124648,12.7471523 L71.2124648,12.7296822 C71.2124648,11.5329778 70.3736743,10.6507359 69.0896192,10.6507359 L67.8841798,10.6507359 L67.8841798,14.8086284 L69.0896192,14.8086284 Z M66.8095424,9.6721843 L69.0896192,9.6721843 C71.0113343,9.6721843 72.3392886,10.9914036 72.3392886,12.712212 L72.3392886,12.7296822 C72.3392886,14.4504906 71.0113343,15.7869561 69.0896192,15.7869561 L66.8095424,15.7869561 L66.8095424,9.6721843 Z" id="Fill-43" fill="#223657"></path>
                            <polygon id="Fill-45" fill="#223657" points="73.4919369 15.7869561 74.5663503 15.7869561 74.5663503 9.6721843 73.4919369 9.6721843"></polygon>
                            <polygon id="Fill-47" fill="#223657" points="77.4926653 10.6680269 75.5534802 10.6680269 75.5534802 9.6722291 80.5149989 9.6722291 80.5149989 10.6680269 78.5758138 10.6680269 78.5758138 15.7870009 77.4926653 15.7870009"></polygon>
                            <polygon id="Fill-48" fill="#223657" points="81.4406922 9.67227389 85.9744166 9.67227389 85.9744166 10.6331314 82.5153296 10.6331314 82.5153296 12.2229138 85.5813385 12.2229138 85.5813385 13.1837713 82.5153296 13.1837713 82.5153296 14.8261881 86.0180919 14.8261881 86.0180919 15.7870456 81.4406922 15.7870456"></polygon>
                            <path d="M89.3633991,14.8086284 C90.6474541,14.8086284 91.4862447,13.9438567 91.4862447,12.7471523 L91.4862447,12.7296822 C91.4862447,11.5329778 90.6474541,10.6507359 89.3633991,10.6507359 L88.1579597,10.6507359 L88.1579597,14.8086284 L89.3633991,14.8086284 Z M87.0833223,9.6721843 L89.3633991,9.6721843 C91.2851141,9.6721843 92.6130685,10.9914036 92.6130685,12.712212 L92.6130685,12.7296822 C92.6130685,14.4504906 91.2851141,15.7869561 89.3633991,15.7869561 L87.0833223,15.7869561 L87.0833223,9.6721843 Z" id="Fill-49" fill="#223657"></path>
                            <path d="M38.8750629,22.8980183 C39.6088087,22.8980183 40.0545211,22.6097611 40.0545211,22.0594518 L40.0545211,22.0419817 C40.0545211,21.5263887 39.6439729,21.2208852 38.7964473,21.2208852 L37.093109,21.2208852 L37.093109,22.8980183 L38.8750629,22.8980183 Z M38.5606005,20.3122142 C39.2506709,20.3122142 39.7136295,20.041427 39.7136295,19.4823827 L39.7136295,19.4649125 C39.7136295,18.9844838 39.3292865,18.6874915 38.6392161,18.6874915 L37.093109,18.6874915 L37.093109,20.3122142 L38.5606005,20.3122142 Z M36.0361657,17.735369 L38.7789772,17.735369 C39.4777826,17.735369 40.0280919,17.9275405 40.3774947,18.2769433 C40.6482818,18.5477304 40.7880429,18.879663 40.7880429,19.2902112 L40.7880429,19.3076813 C40.7880429,20.041427 40.3687596,20.4345051 39.91476,20.6705759 C40.6308116,20.9149339 41.1289345,21.3254821 41.1289345,22.1555375 L41.1289345,22.1730077 C41.1289345,23.2648912 40.2289985,23.8501408 38.8663279,23.8501408 L36.0361657,23.8501408 L36.0361657,17.735369 Z" id="Fill-50" fill="#223657"></path>
                            <path d="M42.0369561,21.2556015 L42.0369561,17.735369 L43.1113695,17.735369 L43.1113695,21.2121502 C43.1113695,22.347709 43.696619,22.9589398 44.6574765,22.9589398 C45.609823,22.9589398 46.1948485,22.3824253 46.1948485,21.2556015 L46.1948485,17.735369 L47.2694859,17.735369 L47.2694859,21.2034151 C47.2694859,23.0290444 46.2387479,23.9462265 44.6400064,23.9462265 C43.050224,23.9462265 42.0369561,23.0290444 42.0369561,21.2556015" id="Fill-51" fill="#223657"></path>
                            <path d="M48.1250075,22.9590294 L48.7716265,22.1903434 C49.3566521,22.6969774 49.9419017,22.9852346 50.7020766,22.9852346 C51.3659418,22.9852346 51.785225,22.6795073 51.785225,22.2165486 L51.785225,22.1990785 C51.785225,21.7623251 51.5406431,21.5264782 50.4050843,21.2644262 C49.1033351,20.9499637 48.3698134,20.5653968 48.3698134,19.438573 L48.3698134,19.4211028 C48.3698134,18.3728946 49.2430962,17.647884 50.4574947,17.647884 C51.3484716,17.647884 52.0560122,17.9186711 52.676202,18.4167939 L52.0996875,19.2291553 C51.5493782,18.8186071 50.9990689,18.6000064 50.4400245,18.6000064 C49.8108756,18.6000064 49.4442267,18.9232039 49.4442267,19.3250171 L49.4442267,19.3427112 C49.4442267,19.8144049 49.7237489,20.0240465 50.8942481,20.3035687 C52.1870382,20.6180311 52.8596384,21.0809898 52.8596384,22.0942577 L52.8596384,22.1117278 C52.8596384,23.2560218 51.9599264,23.9373571 50.6758714,23.9373571 C49.7412191,23.9373571 48.8587532,23.6141596 48.1250075,22.9590294" id="Fill-52" fill="#223657"></path>
                            <polygon id="Fill-53" fill="#223657" points="53.9777944 23.850096 55.0522078 23.850096 55.0522078 17.7353242 53.9777944 17.7353242"></polygon>
                            <polygon id="Fill-54" fill="#223657" points="56.4757551 17.7354138 57.4715529 17.7354138 60.7474275 21.9631869 60.7474275 17.7354138 61.8043707 17.7354138 61.8043707 23.8501856 60.9046587 23.8501856 57.5329224 19.4998976 57.5329224 23.8501856 56.4757551 23.8501856"></polygon>
                            <polygon id="Fill-55" fill="#223657" points="63.1666158 17.7354138 67.7003402 17.7354138 67.7003402 18.6962713 64.2412532 18.6962713 64.2412532 20.2860538 67.3072622 20.2860538 67.3072622 21.2469113 64.2412532 21.2469113 64.2412532 22.8893281 67.7440156 22.8893281 67.7440156 23.8501856 63.1666158 23.8501856"></polygon>
                            <path d="M68.3988769,22.9590294 L69.0454959,22.1903434 C69.6307455,22.6969774 70.2157711,22.9852346 70.975946,22.9852346 C71.6398112,22.9852346 72.0590945,22.6795073 72.0590945,22.2165486 L72.0590945,22.1990785 C72.0590945,21.7623251 71.8145126,21.5264782 70.6789537,21.2644262 C69.3772046,20.9499637 68.6436828,20.5653968 68.6436828,19.438573 L68.6436828,19.4211028 C68.6436828,18.3728946 69.5169657,17.647884 70.7313641,17.647884 C71.6223411,17.647884 72.3298816,17.9186711 72.9500715,18.4167939 L72.373557,19.2291553 C71.8232477,18.8186071 71.2729384,18.6000064 70.713894,18.6000064 C70.0847451,18.6000064 69.7180962,18.9232039 69.7180962,19.3250171 L69.7180962,19.3427112 C69.7180962,19.8144049 69.9976184,20.0240465 71.1678936,20.3035687 C72.4609076,20.6180311 73.1335079,21.0809898 73.1335079,22.0942577 L73.1335079,22.1117278 C73.1335079,23.2560218 72.2337959,23.9373571 70.9497408,23.9373571 C70.0150885,23.9373571 69.1326227,23.6141596 68.3988769,22.9590294" id="Fill-56" fill="#223657"></path>
                            <path d="M73.6922835,22.9590294 L74.3389025,22.1903434 C74.9239281,22.6969774 75.5091777,22.9852346 76.2693526,22.9852346 C76.9332178,22.9852346 77.3525011,22.6795073 77.3525011,22.2165486 L77.3525011,22.1990785 C77.3525011,21.7623251 77.1079192,21.5264782 75.9723603,21.2644262 C74.6706111,20.9499637 73.9370894,20.5653968 73.9370894,19.438573 L73.9370894,19.4211028 C73.9370894,18.3728946 74.8103722,17.647884 76.0247707,17.647884 C76.9157477,17.647884 77.6232882,17.9186711 78.243478,18.4167939 L77.6669635,19.2291553 C77.1166542,18.8186071 76.5663449,18.6000064 76.0073006,18.6000064 C75.3781517,18.6000064 75.0115028,18.9232039 75.0115028,19.3250171 L75.0115028,19.3427112 C75.0115028,19.8144049 75.291025,20.0240465 76.4615241,20.3035687 C77.7543142,20.6180311 78.4269145,21.0809898 78.4269145,22.0942577 L78.4269145,22.1117278 C78.4269145,23.2560218 77.5272024,23.9373571 76.2431474,23.9373571 C75.3084951,23.9373571 74.4260292,23.6141596 73.6922835,22.9590294" id="Fill-57" fill="#223657"></path>
                        </g>
                    </g>
                </g>
            </g>
        </g>
    </g>
</svg>