<svg width="81" height="38" viewBox="0 0 81 38" fill="none" xmlns="http://www.w3.org/2000/svg">
<path d="M3.69238 35.1389H4.3335V35.6182H3.69238V36.6909H3.10205V35.6182H0.997803V35.2722L3.06714 32.0698H3.69238V35.1389ZM1.66431 35.1389H3.10205V32.8728L3.03223 32.9998L1.66431 35.1389ZM4.93652 36.3831C4.93652 36.2815 4.96615 36.1969 5.02539 36.1292C5.08675 36.0614 5.17773 36.0276 5.29834 36.0276C5.41895 36.0276 5.50993 36.0614 5.57129 36.1292C5.63477 36.1969 5.6665 36.2815 5.6665 36.3831C5.6665 36.4804 5.63477 36.5618 5.57129 36.6274C5.50993 36.693 5.41895 36.7258 5.29834 36.7258C5.17773 36.7258 5.08675 36.693 5.02539 36.6274C4.96615 36.5618 4.93652 36.4804 4.93652 36.3831ZM9.60522 36.6909H6.57739V36.2688L8.177 34.4915C8.41398 34.2227 8.5769 34.0048 8.66577 33.8376C8.75675 33.6684 8.80225 33.4938 8.80225 33.314C8.80225 33.0728 8.72925 32.8749 8.58325 32.7205C8.43726 32.566 8.24259 32.4888 7.99927 32.4888C7.70728 32.4888 7.47982 32.5723 7.31689 32.7395C7.15609 32.9045 7.07568 33.1352 7.07568 33.4314H6.48853C6.48853 33.0061 6.625 32.6623 6.89795 32.3999C7.17301 32.1375 7.54012 32.0063 7.99927 32.0063C8.42879 32.0063 8.76839 32.1195 9.01807 32.3459C9.26774 32.5702 9.39258 32.8696 9.39258 33.2441C9.39258 33.6991 9.1027 34.2407 8.52295 34.8691L7.28516 36.2117H9.60522V36.6909ZM15.3911 35.2246C15.334 35.7134 15.1531 36.0911 14.8484 36.3577C14.5458 36.6222 14.1427 36.7544 13.6392 36.7544C13.0933 36.7544 12.6553 36.5587 12.3252 36.1672C11.9972 35.7758 11.8333 35.2521 11.8333 34.5962V34.1519C11.8333 33.7223 11.9094 33.3446 12.0618 33.0188C12.2162 32.693 12.4342 32.4433 12.7156 32.2698C12.997 32.0942 13.3228 32.0063 13.6931 32.0063C14.184 32.0063 14.5776 32.1439 14.8738 32.4189C15.17 32.6919 15.3424 33.0706 15.3911 33.5552H14.7786C14.7257 33.187 14.6104 32.9204 14.4326 32.7554C14.257 32.5903 14.0105 32.5078 13.6931 32.5078C13.3038 32.5078 12.998 32.6517 12.7759 32.9395C12.5558 33.2272 12.4458 33.6366 12.4458 34.1677V34.6152C12.4458 35.1167 12.5505 35.5155 12.76 35.8118C12.9695 36.108 13.2625 36.2561 13.6392 36.2561C13.9777 36.2561 14.2369 36.1799 14.4167 36.0276C14.5987 35.8731 14.7193 35.6055 14.7786 35.2246H15.3911ZM19.479 32.0698V35.2119C19.4769 35.6478 19.3394 36.0043 19.0664 36.2815C18.7956 36.5587 18.4274 36.7142 17.9619 36.748L17.8 36.7544C17.2944 36.7544 16.8913 36.6179 16.5908 36.345C16.2904 36.072 16.138 35.6965 16.1338 35.2183V32.0698H16.7368V35.1992C16.7368 35.5335 16.8289 35.7938 17.0129 35.98C17.197 36.1641 17.4594 36.2561 17.8 36.2561C18.1449 36.2561 18.4084 36.1641 18.5903 35.98C18.7744 35.7959 18.8665 35.5367 18.8665 35.2024V32.0698H19.479ZM21.8022 34.6311C21.2796 34.4809 20.8988 34.2968 20.6597 34.0789C20.4227 33.8588 20.3042 33.588 20.3042 33.2664C20.3042 32.9024 20.4491 32.602 20.739 32.365C21.031 32.1259 21.4097 32.0063 21.8752 32.0063C22.1926 32.0063 22.4751 32.0677 22.7227 32.1904C22.9723 32.3132 23.1649 32.4824 23.3003 32.6982C23.4378 32.9141 23.5066 33.15 23.5066 33.406H22.894C22.894 33.1267 22.8052 32.9077 22.6274 32.749C22.4497 32.5882 22.199 32.5078 21.8752 32.5078C21.5748 32.5078 21.3399 32.5745 21.1707 32.7078C21.0035 32.8389 20.9199 33.022 20.9199 33.2568C20.9199 33.4451 20.9993 33.6049 21.158 33.7361C21.3188 33.8652 21.5907 33.9836 21.9736 34.0916C22.3587 34.1995 22.6592 34.319 22.875 34.4502C23.0929 34.5793 23.2537 34.7306 23.3574 34.9041C23.4632 35.0776 23.5161 35.2817 23.5161 35.5166C23.5161 35.8911 23.3701 36.1916 23.0781 36.418C22.7861 36.6423 22.3958 36.7544 21.907 36.7544C21.5896 36.7544 21.2934 36.6941 21.0183 36.5735C20.7432 36.4508 20.5306 36.2836 20.3804 36.072C20.2323 35.8604 20.1582 35.6203 20.1582 35.3516H20.7708C20.7708 35.6309 20.8734 35.852 21.0786 36.0149C21.286 36.1757 21.5621 36.2561 21.907 36.2561C22.2286 36.2561 22.4751 36.1905 22.6465 36.0593C22.8179 35.9281 22.9036 35.7493 22.9036 35.5229C22.9036 35.2965 22.8242 35.122 22.6655 34.9993C22.5068 34.8744 22.2191 34.7517 21.8022 34.6311ZM27.4929 32.5713H26.0076V36.6909H25.4014V32.5713H23.9192V32.0698H27.4929V32.5713ZM31.6443 34.5295C31.6443 34.9823 31.5681 35.378 31.4158 35.7166C31.2634 36.053 31.0476 36.3101 30.7683 36.4878C30.489 36.6655 30.1632 36.7544 29.7908 36.7544C29.4268 36.7544 29.1042 36.6655 28.8228 36.4878C28.5413 36.3079 28.3223 36.053 28.1658 35.7229C28.0113 35.3907 27.932 35.0067 27.9277 34.5708V34.2375C27.9277 33.7932 28.005 33.4007 28.1594 33.0601C28.3139 32.7194 28.5318 32.4591 28.8132 32.2793C29.0968 32.0973 29.4205 32.0063 29.7844 32.0063C30.1547 32.0063 30.4806 32.0963 30.762 32.2761C31.0455 32.4539 31.2634 32.7131 31.4158 33.0537C31.5681 33.3923 31.6443 33.7869 31.6443 34.2375V34.5295ZM31.0381 34.2312C31.0381 33.6832 30.9281 33.2632 30.708 32.9712C30.488 32.6771 30.1801 32.53 29.7844 32.53C29.3993 32.53 29.0957 32.6771 28.8735 32.9712C28.6535 33.2632 28.5403 33.6694 28.5339 34.1899V34.5295C28.5339 35.0606 28.645 35.4785 28.8672 35.7832C29.0915 36.0858 29.3993 36.2371 29.7908 36.2371C30.1843 36.2371 30.489 36.0942 30.7048 35.8086C30.9207 35.5208 31.0317 35.1093 31.0381 34.574V34.2312ZM33.3455 32.0698L34.8562 35.8403L36.3669 32.0698H37.1572V36.6909H36.5479V34.8914L36.605 32.949L35.0879 36.6909H34.6213L33.1074 32.9585L33.1677 34.8914V36.6909H32.5583V32.0698H33.3455ZM40.8452 34.5549H38.8425V36.1926H41.1689V36.6909H38.2332V32.0698H41.1372V32.5713H38.8425V34.0566H40.8452V34.5549ZM43.6223 34.8215H42.5369V36.6909H41.9243V32.0698H43.4541C43.9746 32.0698 44.3745 32.1883 44.6538 32.4253C44.9352 32.6623 45.0759 33.0072 45.0759 33.46C45.0759 33.7477 44.9976 33.9985 44.8411 34.2122C44.6866 34.4259 44.4708 34.5856 44.1936 34.6914L45.2791 36.6528V36.6909H44.6252L43.6223 34.8215ZM42.5369 34.3232H43.4731C43.7757 34.3232 44.0159 34.245 44.1936 34.0884C44.3735 33.9318 44.4634 33.7223 44.4634 33.46C44.4634 33.1743 44.3777 32.9553 44.2063 32.803C44.037 32.6506 43.7916 32.5734 43.47 32.5713H42.5369V34.3232ZM49.24 34.8215H48.1545V36.6909H47.542V32.0698H49.0718C49.5923 32.0698 49.9922 32.1883 50.2715 32.4253C50.5529 32.6623 50.6936 33.0072 50.6936 33.46C50.6936 33.7477 50.6153 33.9985 50.4587 34.2122C50.3043 34.4259 50.0885 34.5856 49.8113 34.6914L50.8967 36.6528V36.6909H50.2429L49.24 34.8215ZM48.1545 34.3232H49.0908C49.3934 34.3232 49.6335 34.245 49.8113 34.0884C49.9911 33.9318 50.0811 33.7223 50.0811 33.46C50.0811 33.1743 49.9954 32.9553 49.824 32.803C49.6547 32.6506 49.4093 32.5734 49.0876 32.5713H48.1545V34.3232ZM54.1023 35.4849H52.1663L51.7314 36.6909H51.103L52.8677 32.0698H53.4009L55.1687 36.6909H54.5435L54.1023 35.4849ZM52.3503 34.9834H53.9214L53.1343 32.822L52.3503 34.9834ZM58.571 32.5713H57.0857V36.6909H56.4795V32.5713H54.9973V32.0698H58.571V32.5713ZM59.9104 36.6909H59.301V32.0698H59.9104V36.6909ZM64.5791 36.6909H63.9666L61.6401 33.1299V36.6909H61.0276V32.0698H61.6401L63.9729 35.6467V32.0698H64.5791V36.6909ZM69.0732 36.0847C68.9167 36.309 68.6977 36.4772 68.4163 36.5894C68.137 36.6994 67.8111 36.7544 67.4387 36.7544C67.0621 36.7544 66.7278 36.6666 66.4358 36.491C66.1438 36.3132 65.9174 36.0614 65.7566 35.7356C65.5979 35.4097 65.5164 35.0321 65.5122 34.6025V34.1995C65.5122 33.5033 65.6741 32.9638 65.9978 32.5808C66.3236 32.1978 66.7807 32.0063 67.3689 32.0063C67.8513 32.0063 68.2396 32.1301 68.5337 32.3777C68.8278 32.6231 69.0076 32.9722 69.0732 33.425H68.4639C68.3496 32.8136 67.9857 32.5078 67.3721 32.5078C66.9637 32.5078 66.6537 32.6517 66.4421 32.9395C66.2327 33.2251 66.1269 33.6398 66.1248 34.1836V34.5613C66.1248 35.0797 66.2432 35.4923 66.4802 35.7991C66.7172 36.1038 67.0378 36.2561 67.4419 36.2561C67.6704 36.2561 67.8704 36.2307 68.0417 36.1799C68.2131 36.1292 68.3549 36.0435 68.467 35.9229V34.885H67.3975V34.3899H69.0732V36.0847Z" fill="black"/>
<path d="M24.7657 13.0295L26.5807 17.5189L31.2275 17.9361C31.5497 17.9652 31.6808 18.3854 31.4362 18.6066L27.9116 21.7978L28.9678 26.5451C29.0411 26.875 28.699 27.1345 28.4221 26.9592L24.4288 24.4424L20.4354 26.9592C20.1578 27.1337 19.8165 26.8742 19.8897 26.5451L20.9459 21.7978L17.4206 18.6058C17.176 18.3846 17.3064 17.9644 17.6294 17.9353L22.2761 17.5181L24.0911 13.0295C24.2171 12.7172 24.6397 12.7172 24.7657 13.0295Z" fill="#FBBC05"/>
<path d="M8.3016 13.0295L10.1166 17.5189L14.7633 17.9361C15.0856 17.9652 15.2167 18.3854 14.9721 18.6066L11.4475 21.7978L12.5037 26.5451C12.577 26.875 12.2349 27.1345 11.958 26.9592L7.96467 24.4424L3.97131 26.9592C3.69371 27.1337 3.35238 26.8742 3.42563 26.5451L4.48183 21.7978L0.956511 18.6058C0.71187 18.3846 0.842248 17.9644 1.16526 17.9353L5.81197 17.5181L7.627 13.0295C7.75299 12.7172 8.17561 12.7172 8.3016 13.0295Z" fill="#FBBC05"/>
<path d="M41.2301 13.0295L43.0451 17.5189L47.6918 17.9361C48.0141 17.9652 48.1452 18.3854 47.9006 18.6066L44.376 21.7978L45.4322 26.5451C45.5054 26.875 45.1634 27.1345 44.8865 26.9592L40.8931 24.4424L36.8998 26.9592C36.6222 27.1337 36.2808 26.8742 36.3541 26.5451L37.4103 21.7978L33.885 18.6058C33.6403 18.3846 33.7707 17.9644 34.0937 17.9353L38.7404 17.5181L40.5555 13.0295C40.6815 12.7172 41.1041 12.7172 41.2301 13.0295Z" fill="#FBBC05"/>
<path d="M57.6942 13.0295L59.5092 17.5189L64.1559 17.9361C64.4782 17.9652 64.6093 18.3854 64.3647 18.6066L60.8401 21.7978L61.8963 26.5451C61.9695 26.875 61.6275 27.1345 61.3506 26.9592L57.3572 24.4424L53.3639 26.9592C53.0863 27.1337 52.745 26.8742 52.8182 26.5451L53.8744 21.7978L50.3491 18.6058C50.1044 18.3846 50.2348 17.9644 50.5578 17.9353L55.2046 17.5181L57.0196 13.0295C57.1456 12.7172 57.5682 12.7172 57.6942 13.0295Z" fill="#FBBC05"/>
<path d="M75.51 17.3606L75.6245 17.6438L75.9289 17.6712L80.3018 18.0638L76.9689 21.0814L76.7532 21.2766L76.8164 21.5606L77.8081 26.0181L74.0882 23.6736L73.8216 23.5056L73.555 23.6736L69.8351 26.0181L70.8268 21.5606L70.89 21.2766L70.6744 21.0814L67.3407 18.063L71.7136 17.6704L72.0179 17.6431L72.1324 17.3598L73.8212 13.1835L75.51 17.3606ZM69.7706 26.3079L69.7706 26.3079L69.7706 26.3079Z" stroke="#FBBC05"/>
<path d="M73.8216 24.0968V17.6114V12.4496C73.6843 12.4494 73.547 12.5275 73.4839 12.6838L71.6689 17.1724L67.0222 17.5896C66.6992 17.6187 66.5688 18.0389 66.8134 18.2602L70.3388 21.4521L69.2826 26.1995C69.2093 26.5286 69.5506 26.7881 69.8282 26.6136L73.8216 24.0968Z" fill="#FBBC05"/>
<path d="M5.62649 4.21195V5.44774H8.67905C8.5856 6.14099 8.3468 6.64837 7.9834 7.00505C7.53693 7.43707 6.84128 7.90929 5.62649 7.90929C3.74719 7.90929 2.27802 6.44241 2.27802 4.62388C2.27802 2.80535 3.74719 1.33847 5.62649 1.33847C6.63882 1.33847 7.38119 1.72529 7.92629 2.22262L8.82441 1.35355C8.06646 0.6402 7.04894 0.0976562 5.62649 0.0976562C3.05154 0.0976562 0.886719 2.12717 0.886719 4.61886C0.886719 7.11054 3.05154 9.14006 5.62649 9.14006C7.01779 9.14006 8.06646 8.69798 8.88671 7.87412C9.72772 7.06031 9.99248 5.90991 9.99248 4.98558C9.99248 4.69923 9.97171 4.43299 9.92499 4.21195H5.62649Z" fill="#4285F4"/>
<path d="M13.8081 3.20715C12.1416 3.20715 10.7815 4.4329 10.7815 6.12584C10.7815 7.80371 12.1416 9.04454 13.8081 9.04454C15.4745 9.04454 16.8347 7.80874 16.8347 6.12584C16.8347 4.4329 15.4745 3.20715 13.8081 3.20715ZM13.8081 7.89414C12.8944 7.89414 12.1053 7.16572 12.1053 6.12584C12.1053 5.07592 12.8944 4.35755 13.8081 4.35755C14.7218 4.35755 15.5109 5.07592 15.5109 6.12584C15.5109 7.16572 14.7218 7.89414 13.8081 7.89414Z" fill="#EA4335"/>
<path d="M28.6452 3.86022H28.5984C28.3025 3.51861 27.7315 3.20715 27.0099 3.20715C25.5043 3.20715 24.1909 4.47812 24.1909 6.12585C24.1909 7.76353 25.5043 9.04454 27.0099 9.04454C27.7315 9.04454 28.3025 8.73308 28.5984 8.38143H28.6452V8.78834C28.6452 9.90357 28.0274 10.5014 27.0358 10.5014C26.226 10.5014 25.7224 9.93874 25.5147 9.4615L24.3622 9.92367C24.6945 10.6973 25.5718 11.6468 27.0358 11.6468C28.5881 11.6468 29.9015 10.7626 29.9015 8.60749V3.35786H28.6452V3.86022ZM27.1241 7.89414C26.2104 7.89414 25.5147 7.14061 25.5147 6.12585C25.5147 5.09602 26.2104 4.35755 27.1241 4.35755C28.0274 4.35755 28.7334 5.11109 28.7334 6.13589C28.7386 7.15568 28.0274 7.89414 27.1241 7.89414Z" fill="#4285F4"/>
<path d="M20.5571 3.20715C18.8907 3.20715 17.5305 4.4329 17.5305 6.12584C17.5305 7.80371 18.8907 9.04454 20.5571 9.04454C22.2236 9.04454 23.5837 7.80874 23.5837 6.12584C23.5837 4.4329 22.2236 3.20715 20.5571 3.20715ZM20.5571 7.89414C19.6434 7.89414 18.8543 7.16572 18.8543 6.12584C18.8543 5.07592 19.6434 4.35755 20.5571 4.35755C21.4708 4.35755 22.2599 5.07592 22.2599 6.12584C22.2599 7.16572 21.4708 7.89414 20.5571 7.89414Z" fill="#FBBC05"/>
<path d="M30.9399 0.218262H32.243V9.04468H30.9399V0.218262Z" fill="#34A853"/>
<path d="M36.2661 7.89414C35.5913 7.89414 35.1136 7.59775 34.8022 7.00999L38.8359 5.39743L38.7009 5.06587C38.4517 4.41281 37.6834 3.20715 36.1208 3.20715C34.5685 3.20715 33.2759 4.38769 33.2759 6.12584C33.2759 7.76353 34.553 9.04454 36.2661 9.04454C37.6471 9.04454 38.4465 8.22569 38.7788 7.75348L37.7509 7.09037C37.4083 7.57263 36.941 7.89414 36.2661 7.89414ZM36.1727 4.30229C36.7074 4.30229 37.1643 4.56854 37.3148 4.94531L34.5893 6.03542C34.5893 4.80967 35.4874 4.30229 36.1727 4.30229Z" fill="#EA4335"/>
</svg>
