<svg width="122" height="27" viewBox="0 0 122 27" fill="none" xmlns="http://www.w3.org/2000/svg">
<g clip-path="url(#clip0)">
<path d="M33.0134 12.1002C33.0134 11.2393 33.1906 10.4003 33.5417 9.59014C33.8934 8.77678 34.3959 8.05779 35.0446 7.43637C35.7062 6.80276 36.4529 6.32001 37.2884 5.98619C38.1201 5.65559 39.0001 5.48804 39.9207 5.48804C40.8568 5.48804 41.7496 5.65559 42.5942 5.99261C43.4362 6.32707 44.1796 6.80918 44.8219 7.43637C45.4958 8.08924 46.0027 8.81786 46.3442 9.61517C46.683 10.4163 46.8538 11.2862 46.8538 12.2228C46.8538 13.1029 46.6798 13.9477 46.3287 14.7579C45.9802 15.568 45.4842 16.2806 44.8412 16.8956C44.1674 17.5356 43.4175 18.0216 42.5852 18.3496C41.7535 18.6802 40.8645 18.8446 39.9214 18.8446C39.0001 18.8446 38.1175 18.6745 37.2723 18.3368C36.431 17.9965 35.6876 17.517 35.0446 16.8956C34.3772 16.2498 33.8709 15.5173 33.5294 14.7078C33.1841 13.8938 33.0134 13.024 33.0134 12.1002ZM34.9873 12.1663C34.9873 12.825 35.111 13.4528 35.3577 14.0485C35.6051 14.6481 35.962 15.1777 36.4245 15.638C36.8768 16.1015 37.405 16.4546 38.0158 16.7036C38.6233 16.9527 39.2591 17.0786 39.9207 17.0786C40.5978 17.0786 41.2368 16.9559 41.8347 16.7133C42.4293 16.4706 42.964 16.1111 43.4323 15.638C43.8942 15.1777 44.2518 14.6481 44.5017 14.0485C44.7517 13.4528 44.8786 12.825 44.8786 12.1663C44.8786 11.5077 44.7549 10.883 44.5082 10.2963C44.2608 9.70697 43.8942 9.17094 43.413 8.68498C42.9511 8.20929 42.4196 7.84979 41.8186 7.60071C41.2207 7.35099 40.5875 7.22517 39.9201 7.22517C39.2739 7.22517 38.6542 7.35099 38.0499 7.60328C37.4489 7.85557 36.9045 8.21507 36.4239 8.68498C35.962 9.13306 35.6045 9.65947 35.3571 10.2648C35.111 10.867 34.9873 11.5006 34.9873 12.1663Z" fill="#2B4A70"/>
<path d="M48.9197 18.6139V5.68945H50.5328L59.0706 15.7226V5.68945H60.915V18.6139H59.2664L50.755 8.57183V18.6139H48.9197Z" fill="#2B4A70"/>
<path d="M63.6868 18.6139V5.68945H71.4799V7.33222H65.5215V11.252H71.3149V12.9224H65.5215V16.9526H71.6763V18.6139H63.6868Z" fill="#2B4A70"/>
<path d="M78.7991 18.6149V5.69043H82.8428C84.1944 5.69043 85.2509 6.01783 86.0137 6.67134C86.7732 7.32421 87.1526 8.22872 87.1526 9.38617C87.1526 10.5372 86.7732 11.4359 86.0137 12.0824C85.2516 12.7288 84.1944 13.0537 82.8428 13.0537H80.6344V18.6162H78.7991V18.6149ZM80.6344 11.4096H82.647C83.5489 11.4096 84.2041 11.2491 84.6086 10.9307C85.0138 10.6091 85.2161 10.0949 85.2161 9.38552C85.2161 8.67616 85.0132 8.16196 84.6086 7.83713C84.2034 7.5123 83.5489 7.35117 82.647 7.35117H80.6344V11.4096Z" fill="#2B4A70"/>
<path d="M86.605 18.6146L92.2245 5.68945H93.5761L99.2684 18.6146H97.3505L95.6794 14.8084H90.1546L88.5054 18.6146H86.605ZM90.88 13.147H94.9206L92.8732 8.48966L90.88 13.147Z" fill="#2B4A70"/>
<path d="M102.078 11.2892H103.616C104.48 11.2892 105.129 11.1223 105.559 10.7911C105.986 10.4566 106.201 9.94947 106.201 9.2645C106.201 8.56156 105.998 8.05377 105.591 7.73536C105.182 7.41695 104.524 7.25903 103.616 7.25903H102.078V11.2892ZM100.215 18.6139V5.68945H104.015C105.325 5.68945 106.334 5.99823 107.046 6.61323C107.758 7.22758 108.112 8.10128 108.112 9.22727C108.112 10.0785 107.916 10.7628 107.527 11.2796C107.138 11.797 106.525 12.1848 105.683 12.4435C105.898 12.5597 106.103 12.715 106.293 12.9102C106.487 13.1053 106.733 13.4301 107.037 13.8847L110.188 18.6139H107.945L105.721 15.2244C105.053 14.2031 104.515 13.5496 104.104 13.2658C103.693 12.9821 103.202 12.8402 102.636 12.8402H102.079V18.6133H100.215V18.6139Z" fill="#2B4A70"/>
<path d="M111.023 18.6139V5.68945H112.878V11.5011L118.292 5.68945H120.627L114.992 11.7502L121.712 18.6139H119.127L112.878 12.2194V18.6139H111.023Z" fill="#2B4A70"/>
<path d="M39.7069 23.4455H36.9309V24.3969H38.5872V25.1287H36.9309V26.9217H36.2249V22.7471H39.7069V23.4455Z" fill="white"/>
<path d="M47.295 22.7471H46.5889V26.9217H47.295V22.7471Z" fill="white"/>
<path d="M58.4844 26.9217H57.7777L55.3612 23.9141V26.9217H54.6082V22.7471H55.3413L57.7577 25.7354V22.7471H58.4844V26.9217Z" fill="white"/>
<path d="M68.2662 25.0626L67.6111 23.7312L66.9424 25.0626H68.2662ZM70.0404 26.9217H69.2603L68.6657 25.7469H66.5964L65.9928 26.9217H65.2217L67.2516 22.7471H67.9525L70.0404 26.9217Z" fill="white"/>
<path d="M80.6402 26.9217H79.9329L77.5171 23.9141V26.9217H76.7646V22.7471H77.4978L79.9135 25.7354V22.7471H80.6402V26.9217Z" fill="white"/>
<path d="M92.1629 26.0725C91.9194 26.3723 91.596 26.6053 91.1953 26.7716C90.8242 26.9237 90.4241 26.9995 89.9983 26.9995C89.347 26.9995 88.7923 26.8063 88.3343 26.4198C87.837 26.0012 87.5876 25.4556 87.5876 24.7822C87.5876 24.1762 87.8234 23.6678 88.2963 23.2537C88.7666 22.8448 89.3167 22.6406 89.9455 22.6406C90.2901 22.6406 90.6329 22.7055 90.9736 22.8364C91.2835 22.9539 91.5972 23.1298 91.9168 23.366L91.3795 23.9143C91.3228 23.8186 91.136 23.7101 90.8177 23.5881C90.4673 23.4533 90.1594 23.3859 89.8933 23.3859C89.4739 23.3859 89.1189 23.5079 88.8258 23.7506C88.4986 24.0202 88.3349 24.381 88.3349 24.8323C88.3349 25.245 88.5069 25.5955 88.8529 25.8825C89.175 26.1476 89.5441 26.2805 89.9584 26.2805C90.2508 26.2805 90.5414 26.2195 90.8293 26.0982C91.1173 25.9762 91.3924 25.8087 91.6546 25.5968L92.1629 26.0725Z" fill="white"/>
<path d="M99.7393 22.7471H99.0332V26.9217H99.7393V22.7471Z" fill="white"/>
<path d="M109.559 25.0626L108.904 23.7312L108.236 25.0626H109.559ZM111.334 26.9217H110.553L109.959 25.7469H107.89L107.286 26.9217H106.515L108.545 22.7471H109.246L111.334 26.9217Z" fill="white"/>
<path d="M121.712 26.9217H118.13V22.7471H118.863V26.2175H121.712V26.9217Z" fill="white"/>
<path d="M13.9656 19.2735C13.6267 23.4623 12.9767 24.655 8.29004 27.0007H22.7778C19.9568 25.3406 17.0688 23.1843 16.4961 20.8251C16.6114 19.3981 18.8075 17.693 20.2879 17.7457L20.4837 17.7527C20.6119 17.7572 20.7324 17.772 20.8452 17.7938L20.8426 17.7932C20.9167 17.6654 20.9856 17.5332 21.0494 17.3984C18.6078 16.5093 18.4062 18.109 16.9947 18.3099L16.5044 18.292C15.4009 18.2528 14.7837 16.4598 14.8842 15.2144C14.9641 14.2277 15.8299 13.6898 16.8749 13.7264L16.9728 13.7296C18.0486 13.7681 18.756 14.5731 20.1475 14.6225C20.7724 14.645 21.1602 14.3818 21.5222 14.0743V14.0737C21.47 13.7373 21.3889 13.4099 21.2826 13.0928C21.09 13.528 20.6577 13.9594 20.2029 13.9427L20.007 13.9363C19.6508 13.9235 18.946 13.6654 18.6052 13.4998C19.3506 12.5721 20.257 11.4506 20.8426 11.2754L20.7608 10.4261C20.1848 10.7946 18.6999 11.8801 17.9101 13.1114C17.6891 13.0273 17.4643 12.9695 17.233 12.9612L16.7421 12.9438C15.913 12.9143 14.8952 13.5967 14.6703 14.2342C14.5254 14.1173 14.4752 14.2091 14.4977 13.9357C14.9074 11.701 16.6539 10.9435 18.1382 8.91878C18.0873 9.00288 17.7993 8.81157 17.6589 8.78204C17.2743 9.04204 16.6313 9.57422 16.3215 9.99341C15.7571 9.40988 15.9349 7.92568 15.81 7.44678L15.4672 7.7286C15.2089 8.37055 15.5149 9.675 16.0232 10.4357C15.2637 11.5303 14.164 12.0611 13.744 13.4895C13.6886 13.5845 13.2267 12.5317 12.1721 11.6619C12.4819 10.8883 12.3988 8.9849 12.2384 8.31149L11.9299 8.64788C12.0426 9.17171 12.1792 10.1173 11.7965 11.2606C11.4718 11.0597 10.6994 10.6809 10.3567 10.6578L9.94052 11.1675C11.5459 11.5412 12.5766 13.2886 13.4489 14.4338C13.2846 14.8042 13.2827 14.9448 13.2846 15.5482C11.8377 15.4962 10.0977 14.4839 9.96758 13.1075C9.84904 13.5402 9.77946 13.9947 9.76722 14.4659L9.76658 14.4948C10.1312 15.0161 11.0937 15.8731 11.0872 15.9572C11.073 16.1299 10.5532 16.4817 10.1518 16.7153C10.2291 16.9175 10.3174 17.1159 10.4153 17.3078C10.3882 17.3207 10.3612 17.3335 10.3328 17.3457C10.9919 17.053 11.515 16.5985 12.0445 16.2826C13.3858 16.9593 14.1131 17.4516 13.9656 19.2735Z" fill="white"/>
<path d="M18.9875 7.48527C23.9222 6.76371 21.3994 5.12159 23.0299 2.46903C20.0182 2.63786 19.1872 5.05996 18.9875 7.48527L18.9959 7.48334L18.9875 7.48527ZM11.0102 7.50838C12.7251 2.87089 10.0986 4.18562 8.56602 1.38477C7.28338 4.07199 8.99571 6.06205 11.0102 7.50838L11.0289 7.44547L11.0102 7.50838ZM23.1981 14.3593C26.4185 18.2753 26.5216 15.3184 29.6847 15.4667C27.9563 12.9477 25.4122 13.3803 23.1981 14.3593L23.305 14.471L23.1981 14.3593ZM19.0094 7.48013L19.1498 7.44868C19.1041 7.45959 19.0571 7.46986 19.0094 7.48013ZM7.24086 14.4023C7.12877 14.2804 7.01346 14.1667 6.89428 14.0621L6.82535 13.9941C6.96256 14.1231 7.10236 14.2605 7.24344 14.4049L7.24086 14.4023ZM7.24344 14.4049C4.02301 10.489 3.91993 13.4458 0.756836 13.2969C2.48527 15.8153 5.02927 15.3832 7.24344 14.4049Z" fill="white"/>
<path d="M14.9644 6.43175C18.8033 3.33753 15.8302 3.14815 15.8869 0C13.408 1.64918 13.9169 4.19646 14.9644 6.43175C15.0475 6.356 15.1255 6.27896 15.2008 6.2L15.0662 6.3316L14.9644 6.43175Z" fill="#2B4A70"/>
<path d="M22.0061 10.3882C22.0641 10.4075 22.1214 10.4254 22.1794 10.4415L22.0061 10.3882ZM22.001 10.3869C26.7096 12.2313 25.3122 9.57613 28.0804 8.13045C25.3432 6.77399 23.3951 8.4219 22.001 10.3869Z" fill="#2B4A70"/>
<path d="M8.44055 18.3766C8.27369 18.3111 8.11522 18.2521 7.96318 18.1982L7.94321 18.1905L7.94063 18.1898C3.83118 16.7294 5.0262 19.2413 2.36108 20.6331C5.09836 21.9895 7.04646 20.3416 8.44055 18.3766Z" fill="#2B4A70"/>
<path d="M22.2573 18.3369C23.127 23.2755 24.7021 20.8097 27.4136 22.5122C27.1559 19.5066 24.6989 18.6072 22.2573 18.3369C22.2818 18.4403 22.3095 18.5423 22.3404 18.6418L22.2908 18.4602L22.2573 18.3369Z" fill="#2B4A70"/>
<path d="M8.18389 10.4267C7.31484 5.48818 5.73909 7.95393 3.02759 6.25146C3.28463 9.2571 5.74231 10.1565 8.18389 10.4267Z" fill="#2B4A70"/>
</g>
<defs>
<clipPath id="clip0">
<rect x="0.756836" width="120.955" height="27" fill="white"/>
</clipPath>
</defs>
</svg>
