<svg width="200" height="45" viewBox="0 0 200 45" fill="none" xmlns="http://www.w3.org/2000/svg">
<g clip-path="url(#clip0)">
<path d="M53.3362 20.0781C53.3362 18.6496 53.6291 17.2574 54.2097 15.9131C54.7913 14.5635 55.6221 13.3704 56.6948 12.3393C57.7888 11.2879 59.0234 10.4869 60.4049 9.93299C61.7801 9.38441 63.2352 9.10638 64.7574 9.10638C66.3051 9.10638 67.7815 9.38441 69.178 9.94364C70.5703 10.4986 71.7995 11.2986 72.8615 12.3393C73.9757 13.4226 74.8141 14.6316 75.3786 15.9546C75.9389 17.284 76.2212 18.7274 76.2212 20.2815C76.2212 21.7419 75.9336 23.1438 75.3531 24.4881C74.7768 25.8324 73.9566 27.0148 72.8935 28.0352C71.7793 29.0972 70.5394 29.9036 69.1631 30.4479C67.7879 30.9965 66.3179 31.2692 64.7585 31.2692C63.2352 31.2692 61.7759 30.9869 60.3783 30.4266C58.9871 29.8621 57.7579 29.0664 56.6948 28.0352C55.5912 26.9636 54.754 25.7482 54.1894 24.405C53.6185 23.0543 53.3362 21.6109 53.3362 20.0781ZM56.6 20.1878C56.6 21.2807 56.8045 22.3225 57.2125 23.311C57.6215 24.3059 58.2117 25.1847 58.9765 25.9485C59.7243 26.7176 60.5977 27.3034 61.6076 27.7167C62.6121 28.13 63.6634 28.3388 64.7574 28.3388C65.8769 28.3388 66.9336 28.1354 67.9221 27.7327C68.9053 27.3301 69.7895 26.7335 70.5639 25.9485C71.3276 25.1847 71.9188 24.3059 72.3321 23.311C72.7454 22.3225 72.9553 21.2807 72.9553 20.1878C72.9553 19.0949 72.7507 18.0584 72.3428 17.0848C71.9337 16.107 71.3276 15.2175 70.5319 14.4111C69.7682 13.6218 68.8894 13.0253 67.8955 12.612C66.907 12.1976 65.8599 11.9889 64.7563 11.9889C63.6879 11.9889 62.6632 12.1976 61.664 12.6163C60.6702 13.0349 59.7701 13.6314 58.9754 14.4111C58.2117 15.1547 57.6205 16.0281 57.2114 17.0326C56.8045 18.0318 56.6 19.0832 56.6 20.1878Z" fill="#2B4A70"/>
<path d="M79.6375 30.8867V9.44083H82.3047L96.422 26.089V9.44083H99.4717V30.8867H96.7458L82.6722 14.2236V30.8867H79.6375Z" fill="#2B4A70"/>
<path d="M104.055 30.8867V9.44083H116.941V12.1667H107.089V18.6709H116.668V21.4426H107.089V28.13H117.266V30.8867H104.055Z" fill="#2B4A70"/>
<path d="M129.043 30.888V9.44205H135.729C137.964 9.44205 139.711 9.98531 140.972 11.0697C142.228 12.153 142.856 13.6539 142.856 15.5745C142.856 17.4844 142.228 18.9757 140.972 20.0484C139.712 21.121 137.964 21.66 135.729 21.66H132.078V30.8901H129.043V30.888ZM132.078 18.932H135.405C136.897 18.932 137.98 18.6657 138.649 18.1374C139.319 17.6037 139.654 16.7505 139.654 15.5734C139.654 14.3963 139.318 13.5431 138.649 13.0041C137.979 12.4651 136.897 12.1978 135.405 12.1978H132.078V18.932Z" fill="#2B4A70"/>
<path d="M141.95 30.8878L151.242 9.44083H153.477L162.889 30.8878H159.718L156.955 24.5722H147.82L145.093 30.8878H141.95ZM149.019 21.8154H155.7L152.315 14.0873L149.019 21.8154Z" fill="#2B4A70"/>
<path d="M167.536 18.7327H170.078C171.507 18.7327 172.579 18.4557 173.291 17.9061C173.997 17.3511 174.353 16.5096 174.353 15.373C174.353 14.2066 174.017 13.364 173.343 12.8357C172.668 12.3073 171.579 12.0453 170.078 12.0453H167.536V18.7327ZM164.454 30.8867V9.44083H170.738C172.903 9.44083 174.572 9.95319 175.749 10.9737C176.926 11.9931 177.512 13.4428 177.512 15.3112C177.512 16.7237 177.188 17.8592 176.545 18.7167C175.902 19.5753 174.888 20.2186 173.495 20.6479C173.851 20.8407 174.191 21.0985 174.505 21.4223C174.825 21.7462 175.233 22.2852 175.734 23.0393L180.945 30.8867H177.236L173.558 25.2624C172.455 23.5677 171.565 22.4833 170.886 22.0125C170.205 21.5416 169.394 21.3062 168.458 21.3062H167.537V30.8857H164.454V30.8867Z" fill="#2B4A70"/>
<path d="M182.326 30.8867V9.44083H185.393V19.0842L194.345 9.44083H198.205L188.888 19.4975L200 30.8867H195.725L185.393 20.2762V30.8867H182.326Z" fill="#2B4A70"/>
<path d="M64.4037 38.9035H59.8137V40.4822H62.5524V41.6965H59.8137V44.6717H58.6462V37.7446H64.4037V38.9035Z" fill="#97C35E"/>
<path d="M76.951 37.7446H75.7834V44.6717H76.951V37.7446Z" fill="#97C35E"/>
<path d="M95.4526 44.6717H94.2841L90.2885 39.6811V44.6717H89.0432V37.7446H90.2554L94.2511 42.7032V37.7446H95.4526V44.6717Z" fill="#97C35E"/>
<path d="M111.627 41.5868L110.543 39.3775L109.438 41.5868H111.627ZM114.56 44.6717H113.27L112.287 42.7223H108.866L107.868 44.6717H106.593L109.949 37.7446H111.108L114.56 44.6717Z" fill="#97C35E"/>
<path d="M132.087 44.6717H130.918L126.923 39.6811V44.6717H125.679V37.7446H126.891L130.886 42.7032V37.7446H132.087V44.6717Z" fill="#97C35E"/>
<path d="M151.14 43.2627C150.737 43.7601 150.202 44.1468 149.54 44.4227C148.926 44.6751 148.265 44.8008 147.561 44.8008C146.484 44.8008 145.567 44.4802 144.809 43.8389C143.987 43.1444 143.575 42.239 143.575 41.1216C143.575 40.116 143.965 39.2724 144.746 38.5853C145.524 37.9068 146.434 37.5681 147.473 37.5681C148.043 37.5681 148.61 37.6756 149.173 37.8929C149.686 38.0879 150.205 38.3797 150.733 38.7717L149.845 39.6814C149.751 39.5227 149.442 39.3427 148.916 39.1403C148.336 38.9166 147.827 38.8048 147.387 38.8048C146.694 38.8048 146.107 39.0072 145.622 39.4098C145.081 39.8572 144.81 40.4558 144.81 41.2047C144.81 41.8896 145.095 42.4712 145.667 42.9474C146.199 43.3873 146.81 43.6078 147.495 43.6078C147.978 43.6078 148.459 43.5066 148.935 43.3053C149.411 43.1029 149.866 42.8249 150.299 42.4733L151.14 43.2627Z" fill="#97C35E"/>
<path d="M163.668 37.7446H162.5V44.6717H163.668V37.7446Z" fill="#97C35E"/>
<path d="M179.906 41.5868L178.822 39.3775L177.717 41.5868H179.906ZM182.839 44.6717H181.549L180.566 42.7223H177.145L176.147 44.6717H174.872L178.228 37.7446H179.387L182.839 44.6717Z" fill="#97C35E"/>
<path d="M200 44.6717H194.076V37.7446H195.29V43.5031H200V44.6717Z" fill="#97C35E"/>
<path d="M21.8411 31.9809C21.2808 38.9314 20.206 40.9106 12.4565 44.8029H36.4121C31.7475 42.0482 26.9722 38.4702 26.0252 34.5555C26.2159 32.1876 29.8472 29.3584 32.2951 29.4457L32.6189 29.4574C32.8309 29.4649 33.03 29.4894 33.2165 29.5256L33.2122 29.5245C33.3347 29.3125 33.4487 29.0931 33.5541 28.8694C29.517 27.3941 29.1836 30.0486 26.8497 30.382L26.0391 30.3522C24.2144 30.2872 23.1939 27.3121 23.3601 25.2456C23.4921 23.6083 24.9238 22.7157 26.6516 22.7764L26.8135 22.7817C28.5924 22.8456 29.762 24.1814 32.0628 24.2634C33.0961 24.3007 33.7373 23.864 34.336 23.3538V23.3527C34.2497 22.7945 34.1155 22.2513 33.9397 21.725C33.6212 22.4473 32.9065 23.1631 32.1544 23.1354L31.8306 23.1247C31.2416 23.1034 30.0762 22.6752 29.5127 22.4004C30.7452 20.8612 32.2439 19.0002 33.2122 18.7094L33.0769 17.3002C32.1246 17.9116 29.6693 19.7129 28.3634 21.7559C27.998 21.6164 27.6262 21.5205 27.2438 21.5067L26.4321 21.4779C25.0612 21.4289 23.3782 22.5612 23.0064 23.619C22.7667 23.4251 22.6836 23.5774 22.7209 23.1237C23.3984 19.4157 26.2862 18.1587 28.7404 14.799C28.6563 14.9386 28.1801 14.6211 27.9479 14.5721C27.312 15.0036 26.2489 15.8866 25.7365 16.5822C24.8034 15.6139 25.0974 13.1512 24.8908 12.3565L24.3241 12.8241C23.8969 13.8893 24.4029 16.0539 25.2433 17.3161C23.9875 19.1323 22.1691 20.0132 21.4746 22.3833C21.383 22.541 20.6193 20.794 18.8755 19.3507C19.3879 18.0671 19.2505 14.9088 18.9852 13.7913L18.475 14.3495C18.6614 15.2187 18.8872 16.7878 18.2545 18.6849C17.7176 18.3515 16.4404 17.723 15.8737 17.6847L15.1856 18.5305C17.8401 19.1504 19.5445 22.0499 20.9868 23.9503C20.7151 24.5649 20.7119 24.7982 20.7151 25.7995C18.3227 25.7132 15.4455 24.0334 15.2304 21.7495C15.0344 22.4675 14.9193 23.2217 14.8991 24.0035L14.898 24.0515C15.5009 24.9164 17.0923 26.3385 17.0817 26.478C17.0583 26.7646 16.1986 27.3483 15.535 27.736C15.6628 28.0716 15.8088 28.4007 15.9707 28.7192C15.9259 28.7405 15.8812 28.7618 15.8343 28.7821C16.924 28.2963 17.789 27.5422 18.6646 27.0181C20.8824 28.1408 22.085 28.9578 21.8411 31.9809Z" fill="#97C35E"/>
<path d="M30.1444 12.4203C38.304 11.223 34.1326 8.49821 36.8286 4.09675C31.8488 4.3769 30.4746 8.39595 30.1444 12.4203L30.1583 12.4171L30.1444 12.4203ZM16.9539 12.4587C19.7895 4.76358 15.4466 6.94513 12.9125 2.29761C10.7917 6.75659 13.623 10.0587 16.9539 12.4587L16.9848 12.3543L16.9539 12.4587ZM37.1067 23.8266C42.4317 30.3244 42.6021 25.418 47.8323 25.6641C44.9743 21.4842 40.7678 22.2022 37.1067 23.8266L37.2835 24.012L37.1067 23.8266ZM30.1806 12.4118L30.4129 12.3596C30.3372 12.3777 30.2595 12.3948 30.1806 12.4118ZM10.7214 23.898C10.536 23.6956 10.3453 23.5071 10.1483 23.3334L10.0343 23.2205C10.2612 23.4346 10.4923 23.6626 10.7256 23.9023L10.7214 23.898ZM10.7256 23.9023C5.40062 17.4045 5.23019 22.3108 0 22.0637C2.85796 26.2425 7.06449 25.5256 10.7256 23.9023Z" fill="#97C35E"/>
<path d="M23.4923 10.6724C29.8399 5.53804 24.924 5.2238 25.0177 0C20.9188 2.73653 21.7603 6.96329 23.4923 10.6724C23.6297 10.5467 23.7586 10.4188 23.8833 10.2878L23.6606 10.5062L23.4923 10.6724Z" fill="#2B4A70"/>
<path d="M35.136 17.2373C35.2318 17.2692 35.3266 17.299 35.4225 17.3257L35.136 17.2373ZM35.1274 17.2351C42.9131 20.2955 40.6026 15.8898 45.1799 13.4909C40.6538 11.2401 37.4326 13.9745 35.1274 17.2351Z" fill="#2B4A70"/>
<path d="M12.7047 30.4928C12.4289 30.3841 12.1668 30.2861 11.9154 30.1966L11.8824 30.1839L11.8781 30.1828C5.08316 27.7594 7.05913 31.9276 2.65234 34.237C7.17843 36.4878 10.3996 33.7534 12.7047 30.4928Z" fill="#2B4A70"/>
<path d="M35.5515 30.4267C36.9896 38.6214 39.594 34.5299 44.0775 37.3549C43.6514 32.3675 39.5887 30.8752 35.5515 30.4267C35.592 30.5982 35.6378 30.7676 35.6889 30.9327L35.6069 30.6312L35.5515 30.4267Z" fill="#2B4A70"/>
<path d="M12.2808 17.3013C10.8439 9.10657 8.23836 13.1981 3.75488 10.3731C4.1799 15.3604 8.24369 16.8528 12.2808 17.3013Z" fill="#2B4A70"/>
</g>
<defs>
<clipPath id="clip0">
<rect width="200" height="44.8018" fill="white"/>
</clipPath>
</defs>
</svg>
