<svg width="20" height="20" viewBox="0 0 20 20" fill="none" xmlns="http://www.w3.org/2000/svg">
<path fill-rule="evenodd" clip-rule="evenodd" d="M4.60942 1.16904L3.32394 1.80356C-1.43743 4.28575 5.62366 19.0178 10.976 19.0178C11.3541 19.0178 11.719 18.9405 12.0585 18.7844L13.3259 18.1638L10.9439 13.566L9.67819 14.1858C9.52942 14.2573 9.36257 14.2959 9.1875 14.2959C7.08257 14.2959 3.56476 7.55288 5.70175 6.40877L6.97243 5.78164L4.60942 1.16904ZM10.976 19.8356C6.3075 19.8356 0.931335 10.7008 0.931335 5.17918C0.931335 3.19096 1.61599 1.77151 2.95079 1.07616L4.9086 0.109589L8.07873 6.14822L6.07572 7.13534C4.89298 7.76986 8.05572 14.0592 9.32723 13.4477L11.299 12.4786L14.4354 18.5279C14.4354 18.5279 12.4957 19.483 12.4004 19.5266C11.9508 19.7329 11.4724 19.8356 10.976 19.8356Z" fill="#72A531"/>
<path fill-rule="evenodd" clip-rule="evenodd" d="M15.7258 14.0822H14.9039V3.39728H15.7258V14.0822ZM14.082 12.4384H13.2601V5.04111H14.082V12.4384ZM17.3696 11.6165H16.5477V5.86303H17.3696V11.6165ZM12.4381 10.7945H11.6162V6.68495H12.4381V10.7945ZM10.7943 9.97262H9.97239V7.50687H10.7943V9.97262ZM19.0135 9.97262H18.1916V7.50687H19.0135V9.97262ZM9.15047 9.1507H8.32855V8.32878H9.15047V9.1507Z" fill="#72A531"/>
</svg>
