<svg id="Layer_1" data-name="Layer 1" xmlns="http://www.w3.org/2000/svg" viewBox="0 0 1271.21 96"><defs><style>.cls-1{fill:#00b67a;}.cls-2{fill:#fff;}.cls-3{fill:#191919;}.cls-4{fill:#005128;}</style></defs><title>trustpilot_ratings_5star-horizontal</title><g id="Trustpilot_ratings_5star-RGB" data-name="Trustpilot ratings 5star-RGB"><rect id="Rectangle-path" class="cls-1" x="324.21" width="96" height="96"/><rect id="Rectangle-path-2" data-name="Rectangle-path" class="cls-1" x="428.21" width="96" height="96"/><rect id="Rectangle-path-3" data-name="Rectangle-path" class="cls-1" x="532.21" width="96" height="96"/><rect id="Rectangle-path-4" data-name="Rectangle-path" class="cls-1" x="636.21" width="96" height="96"/><rect id="Rectangle-path-5" data-name="Rectangle-path" class="cls-1" x="740.21" width="96" height="96"/><path id="Shape" class="cls-2" d="M372.21,64.7l14.6-3.7,6.1,18.8Zm33.6-24.3h-25.7l-7.9-24.2-7.9,24.2h-25.7l20.8,15-7.9,24.2,20.8-15,12.8-9.2,20.7-15Z"/><path id="Shape-2" data-name="Shape" class="cls-2" d="M476.21,64.7l14.6-3.7,6.1,18.8Zm33.6-24.3h-25.7l-7.9-24.2-7.9,24.2h-25.7l20.8,15-7.9,24.2,20.8-15,12.8-9.2,20.7-15Z"/><path id="Shape-3" data-name="Shape" class="cls-2" d="M580.21,64.7l14.6-3.7,6.1,18.8Zm33.6-24.3h-25.7l-7.9-24.2-7.9,24.2h-25.7l20.8,15-7.9,24.2,20.8-15,12.8-9.2,20.7-15Z"/><path id="Shape-4" data-name="Shape" class="cls-2" d="M684.21,64.7l14.6-3.7,6.1,18.8Zm33.6-24.3h-25.7l-7.9-24.2-7.9,24.2h-25.7l20.8,15-7.9,24.2,20.8-15,12.8-9.2,20.7-15Z"/><path id="Shape-5" data-name="Shape" class="cls-2" d="M788.21,64.7l14.6-3.7,6.1,18.8Zm33.6-24.3h-25.7l-7.9-24.2-7.9,24.2h-25.7l20.8,15-7.9,24.2,20.8-15,12.8-9.2,20.7-15Z"/></g><g id="Type"><path class="cls-3" d="M972.24,34.74h37.64v7h-14.8V81.25h-8.14V41.77H972.21v-7Zm36,12.84h7v6.49h.13a7.76,7.76,0,0,1,1.28-2.66,12.36,12.36,0,0,1,5.22-4.1,9.15,9.15,0,0,1,3.31-.65c.86,0,1.48,0,1.81.06s.66.1,1,.13V54c-.53-.1-1-.17-1.61-.23a12.76,12.76,0,0,0-1.61-.1,8.68,8.68,0,0,0-3.54.75,8.25,8.25,0,0,0-2.89,2.2,11.23,11.23,0,0,0-2,3.61,15.42,15.42,0,0,0-.72,5v16h-7.42V47.58Zm53.82,33.67h-7.28v-4.7h-.13a10.15,10.15,0,0,1-4.07,4.07,11.11,11.11,0,0,1-5.52,1.54c-4.43,0-7.64-1.08-9.61-3.28s-3-5.51-3-9.94V47.58h7.41V68.22c0,3,.56,5,1.71,6.26a6.15,6.15,0,0,0,4.76,1.84,9.15,9.15,0,0,0,3.9-.72,6.56,6.56,0,0,0,2.53-1.94,7.26,7.26,0,0,0,1.41-2.88,14.06,14.06,0,0,0,.43-3.65V47.61h7.41Zm12.64-10.8a5.73,5.73,0,0,0,2.46,4.56,10,10,0,0,0,5.15,1.31,21.39,21.39,0,0,0,2.36-.16,9.85,9.85,0,0,0,2.5-.63,4.67,4.67,0,0,0,1.93-1.34,3.2,3.2,0,0,0,.69-2.3,3.15,3.15,0,0,0-1-2.33,7.27,7.27,0,0,0-2.49-1.47,25,25,0,0,0-3.48-1c-1.31-.26-2.62-.55-4-.85a35.58,35.58,0,0,1-4-1.12,12,12,0,0,1-3.45-1.77,7.73,7.73,0,0,1-2.43-2.82,8.88,8.88,0,0,1-.92-4.27,7.67,7.67,0,0,1,1.35-4.59,10.13,10.13,0,0,1,3.38-3,15.6,15.6,0,0,1,4.56-1.6,27.27,27.27,0,0,1,4.79-.46,22.44,22.44,0,0,1,5,.55,13.09,13.09,0,0,1,4.3,1.81,10.51,10.51,0,0,1,3.18,3.22,11.09,11.09,0,0,1,1.61,4.79h-7.74a4.63,4.63,0,0,0-2.43-3.58,10,10,0,0,0-4.4-.92,13.46,13.46,0,0,0-1.87.13,10.47,10.47,0,0,0-2,.49,4.41,4.41,0,0,0-1.6,1.05,2.53,2.53,0,0,0-.66,1.81,2.82,2.82,0,0,0,1,2.2,8.2,8.2,0,0,0,2.46,1.41,25.06,25.06,0,0,0,3.48,1c1.31.26,2.66.56,4,.85s2.66.69,4,1.12a12.27,12.27,0,0,1,3.48,1.77,8.9,8.9,0,0,1,2.46,2.79,8.57,8.57,0,0,1,1,4.17,9.09,9.09,0,0,1-1.38,5.09,11.11,11.11,0,0,1-3.54,3.38,16.75,16.75,0,0,1-4.86,1.9,24.56,24.56,0,0,1-5.28.59,22.52,22.52,0,0,1-5.91-.72,14.38,14.38,0,0,1-4.69-2.17,10.6,10.6,0,0,1-3.12-3.64,11.93,11.93,0,0,1-1.21-5.19h7.48Zm24.48-22.87h5.61V37.47h7.42V47.58h6.69v5.54h-6.69v18a17.37,17.37,0,0,0,.1,2,3.59,3.59,0,0,0,.46,1.44,2.1,2.1,0,0,0,1.08.89,5.21,5.21,0,0,0,2,.29c.52,0,1.05,0,1.57,0a8.61,8.61,0,0,0,1.58-.23v5.75c-.82.09-1.64.16-2.4.26a18.84,18.84,0,0,1-2.39.13,16.65,16.65,0,0,1-4.73-.56,6.17,6.17,0,0,1-2.79-1.64,5.76,5.76,0,0,1-1.38-2.69,20,20,0,0,1-.42-3.71V53.19h-5.62V47.58Zm25,0h7v4.56h.13a9.13,9.13,0,0,1,4.36-4.2,14.27,14.27,0,0,1,6.07-1.28,15.76,15.76,0,0,1,6.93,1.41,13.52,13.52,0,0,1,4.92,3.84,16.87,16.87,0,0,1,2.92,5.71,23.73,23.73,0,0,1,1,6.95,24.23,24.23,0,0,1-.88,6.57,17.58,17.58,0,0,1-2.66,5.64,13.1,13.1,0,0,1-4.53,3.91,13.48,13.48,0,0,1-6.46,1.47,17.77,17.77,0,0,1-3.25-.29,15,15,0,0,1-3.12-1,11.46,11.46,0,0,1-2.76-1.68,10.36,10.36,0,0,1-2.13-2.36h-.13v16.8h-7.42Zm25.93,16.86a17,17,0,0,0-.59-4.43,12.19,12.19,0,0,0-1.77-3.8,9,9,0,0,0-2.93-2.66,9,9,0,0,0-11.09,2.23,14.45,14.45,0,0,0-2.36,8.66,16.92,16.92,0,0,0,.62,4.73,10.69,10.69,0,0,0,1.87,3.74,8.85,8.85,0,0,0,3,2.46,9.25,9.25,0,0,0,8.3-.13,9.2,9.2,0,0,0,2.89-2.69,11.3,11.3,0,0,0,1.64-3.78A21.42,21.42,0,0,0,1150.11,64.44Zm13.09-29.7h7.42v7h-7.42Zm0,12.84h7.42V81.25h-7.42Zm14-12.84h7.41V81.25h-7.41Zm30.16,47.42a18.47,18.47,0,0,1-7.19-1.34,15.06,15.06,0,0,1-8.66-9.29,21.49,21.49,0,0,1-1.15-7.15,21.26,21.26,0,0,1,1.15-7.09,15.89,15.89,0,0,1,3.31-5.61,15.08,15.08,0,0,1,5.35-3.68,19.93,19.93,0,0,1,14.37,0,15.11,15.11,0,0,1,8.67,9.29,21.51,21.51,0,0,1,1.15,7.09,21.75,21.75,0,0,1-1.15,7.15,15.91,15.91,0,0,1-3.32,5.61,15.08,15.08,0,0,1-5.35,3.68A18.42,18.42,0,0,1,1207.41,82.16Zm0-5.87a8.61,8.61,0,0,0,4.3-1.05,9.26,9.26,0,0,0,3-2.72,12.16,12.16,0,0,0,1.74-3.81,16.9,16.9,0,0,0,0-8.63,11.16,11.16,0,0,0-1.74-3.81,9.17,9.17,0,0,0-3-2.69,9.33,9.33,0,0,0-8.6,0,9.44,9.44,0,0,0-3,2.69,12,12,0,0,0-1.74,3.81,16.9,16.9,0,0,0,0,8.63,11.52,11.52,0,0,0,1.74,3.81,9.19,9.19,0,0,0,3,2.72A8.29,8.29,0,0,0,1207.41,76.29Zm19.16-28.71h5.61V37.47h7.42V47.58h6.69v5.54h-6.69v18a17.37,17.37,0,0,0,.1,2,3.59,3.59,0,0,0,.46,1.44,2.1,2.1,0,0,0,1.08.89,5.25,5.25,0,0,0,2,.29c.52,0,1,0,1.57,0a8.61,8.61,0,0,0,1.58-.23v5.75c-.82.09-1.64.16-2.4.26a18.73,18.73,0,0,1-2.39.13,16.65,16.65,0,0,1-4.73-.56,6.17,6.17,0,0,1-2.79-1.64,5.66,5.66,0,0,1-1.37-2.69,19.92,19.92,0,0,1-.43-3.71V53.19h-5.61V47.58Z"/></g><g id="Star"><polygon class="cls-1" points="963.58 34.74 929.58 34.74 919.08 2.39 908.54 34.74 874.55 34.71 902.08 54.73 891.54 87.05 919.08 67.07 946.58 87.05 936.08 54.73 963.58 34.74 963.58 34.74 963.58 34.74"/><polygon class="cls-4" points="938.44 62.05 936.08 54.73 919.08 67.07 938.44 62.05"/></g><path class="cls-3" d="M49.47,60.22H30.91V72.79H52.69v7.76H21.24V33.63H52.63v7.83H30.91V52.64H49.47Z"/><path class="cls-3" d="M71,56.09l5.86-10.41h10L76.93,62.76,87.27,80.55h-10l-6.22-11-6.19,11h-10L65.2,62.76,55.3,45.68h10Z"/><path class="cls-3" d="M105.19,73.69a6.15,6.15,0,0,0,4.19-1.42,5,5,0,0,0,1.67-3.77h8.74A11.9,11.9,0,0,1,117.85,75a12.73,12.73,0,0,1-5.2,4.58,16.37,16.37,0,0,1-7.3,1.63c-5,0-8.92-1.59-11.79-4.76s-4.32-7.54-4.32-13.13V62.7q0-8.06,4.28-12.86T105.29,45q6.54,0,10.49,3.72a13.2,13.2,0,0,1,4,9.91h-8.74a6.4,6.4,0,0,0-1.67-4.42,6.23,6.23,0,0,0-9.17.67q-1.67,2.37-1.66,7.7v1q0,5.4,1.64,7.75A5.69,5.69,0,0,0,105.19,73.69Z"/><path class="cls-3" d="M141.15,81.2q-7.67,0-12.48-4.71T123.85,64v-.91a21,21,0,0,1,2-9.39,14.87,14.87,0,0,1,5.75-6.38A16.16,16.16,0,0,1,140.12,45q7.15,0,11.27,4.51t4.1,12.79v3.81h-22.2A8.65,8.65,0,0,0,136,71.62a8.24,8.24,0,0,0,5.76,2.07,10.06,10.06,0,0,0,8.41-3.9l4.57,5.12a13.91,13.91,0,0,1-5.67,4.63A18.7,18.7,0,0,1,141.15,81.2Zm-1.06-28.65a5.79,5.79,0,0,0-4.49,1.87,9.75,9.75,0,0,0-2.21,5.38h13v-.75a6.92,6.92,0,0,0-1.67-4.8A6,6,0,0,0,140.09,52.55Z"/><path class="cls-3" d="M170.61,80.55h-9.35V31.05h9.35Z"/><path class="cls-3" d="M188.11,80.55h-9.35V31.05h9.35Z"/><path class="cls-3" d="M211.83,81.2q-7.68,0-12.49-4.71T194.52,64v-.91a21.1,21.1,0,0,1,2-9.39,14.87,14.87,0,0,1,5.75-6.38A16.23,16.23,0,0,1,210.8,45q7.14,0,11.26,4.51t4.11,12.79v3.81H204a8.61,8.61,0,0,0,2.73,5.47,8.2,8.2,0,0,0,5.75,2.07,10,10,0,0,0,8.41-3.9l4.58,5.12a14,14,0,0,1-5.68,4.63A18.66,18.66,0,0,1,211.83,81.2Zm-1.07-28.65a5.82,5.82,0,0,0-4.49,1.87,9.75,9.75,0,0,0-2.21,5.38h13v-.75a7,7,0,0,0-1.68-4.8A6,6,0,0,0,210.76,52.55Z"/><path class="cls-3" d="M240,45.68l.29,4a12.21,12.21,0,0,1,10-4.67q5.53,0,8.25,3.25T261.36,58V80.55h-9.31V58.25a6,6,0,0,0-1.29-4.3c-.86-.89-2.29-1.34-4.29-1.34a6.42,6.42,0,0,0-5.9,3.35V80.55h-9.31V45.68Z"/><path class="cls-3" d="M279.57,37.11v8.57h6v6.83h-6V69.92a4.12,4.12,0,0,0,.74,2.77,3.7,3.7,0,0,0,2.83.84,14.76,14.76,0,0,0,2.74-.23v7.06a19.07,19.07,0,0,1-5.64.84q-9.8,0-10-9.9V52.51h-5.09V45.68h5.09V37.11Z"/></svg>